<?xml version="1.0" encoding="UTF-8" standalone="no"?><!DOCTYPE svg PUBLIC "-//W3C//DTD SVG 1.1//EN" "http://www.w3.org/Graphics/SVG/1.1/DTD/svg11.dtd"><svg width="100%" height="100%" viewBox="0 0 1080 700" version="1.1" xmlns="http://www.w3.org/2000/svg" xmlns:xlink="http://www.w3.org/1999/xlink" xml:space="preserve" xmlns:serif="http://www.serif.com/" style="fill-rule:evenodd;clip-rule:evenodd;stroke-miterlimit:10;"><g id="Layer-1" serif:id="Layer 1"><path d="M834.759,219.393c0,0 -9.482,-3.583 -14,0.655c-4.518,4.235 -14.235,17.269 -14.235,17.269l-18.033,3.941l6.966,21.304l30.42,-13.741l8.365,-22.862l0.517,-6.566Z" style="fill:#e08a80;fill-rule:nonzero;"/><path d="M909.94,551.986l-62.62,0l28.596,-211.384l67.021,-0c15.101,-0 26.677,14.023 24.455,29.628l-19.714,149.011c-2.674,18.788 -18.759,32.745 -37.738,32.745" style="fill:#ea55a4;fill-rule:nonzero;"/><path d="M904.991,337.696l3.137,89.983l-126.231,0l-1.945,-106.648c0,-0 -40.509,-8.102 -43.846,-40.512c-3.337,-32.408 57.284,-42.894 57.284,-42.894l10.863,29.897c0,-0 -13.632,8.233 -10.863,11.092c2.768,2.86 31.584,3.812 31.584,3.812l60.498,7.627l19.519,47.643Z" style="fill:#d7d7d7;fill-rule:nonzero;"/><path d="M871.767,288.325c-0,-0 -7.93,60.826 -9.837,87.993c-1.908,27.166 -5.005,51.71 -5.005,51.71l-57.109,-0c0,-0 1.181,-89.777 6.5,-112.385c5.316,-22.611 9.179,-27.318 9.179,-27.318l56.272,-0Z" style="fill:#ddf0fe;fill-rule:nonzero;"/><path d="M877.745,223.061c1.236,-1.052 2.86,-1.636 4.479,-1.61c1.621,0.023 3.225,0.655 4.429,1.744c-0.992,-0.183 -2.004,0.161 -2.888,0.644c-0.884,0.483 -1.682,1.109 -2.579,1.561c-0.898,0.455 -1.948,0.729 -2.911,0.446c-0.967,-0.283 -1.768,-1.264 -1.582,-2.25" style="fill:#474f6b;fill-rule:nonzero;"/><path d="M870.715,214.161c-1.693,-2.162 -4.487,-3.314 -7.232,-3.337c1.493,-1.501 1.787,-3.983 0.586,-5.725c0.006,1.682 -0.766,3.146 -2.244,3.949c-2.683,-3.737 -8.07,-5.241 -12.299,-3.434c-4.23,1.807 -6.866,6.743 -6.017,11.261l0.017,1.241c0.618,4.278 4.372,7.629 8.533,8.793c4.161,1.167 8.63,0.486 12.76,-0.775c2.568,-0.78 5.247,-1.936 6.608,-4.249c1.393,-2.368 0.981,-5.562 -0.712,-7.724" style="fill:#474f6b;fill-rule:nonzero;"/><path d="M492.38,663.286c-0,7.847 -77.032,14.209 -172.054,14.209c-95.022,0 -172.051,-6.362 -172.051,-14.209c0,-7.847 77.029,-14.21 172.051,-14.21c95.022,0 172.054,6.363 172.054,14.21" style="fill:#ceecec;fill-rule:nonzero;"/><path d="M339.04,610.897l-1.787,43.829l19.131,0l8.819,-45.396l-26.163,1.567Z" style="fill:#f1a39b;fill-rule:nonzero;"/><path d="M337.523,648.114c-0,-0 8.03,0.314 10.58,-2.545c2.554,-2.86 10.309,-1.273 10.309,-1.273c0,0 5.651,7.707 13.335,11.639c7.686,3.932 9.651,3.217 12.51,6.256c2.86,3.037 2.274,6.655 2.274,6.655l-49.277,-0l0.269,-20.732Z" style="fill:#474e6b;fill-rule:nonzero;"/><path d="M266.411,608.906l-10.406,42.614l18.753,3.78l17.613,-42.762l-25.96,-3.632Z" style="fill:#f1a39b;fill-rule:nonzero;"/><path d="M257.137,648.114c-0,-0 8.03,0.314 10.583,-2.545c2.551,-2.86 10.306,-1.273 10.306,-1.273c0,0 5.651,7.707 13.335,11.639c7.686,3.932 9.651,3.217 12.51,6.256c2.86,3.037 2.274,6.655 2.274,6.655l-49.277,-0l0.269,-20.732Z" style="fill:#474e6b;fill-rule:nonzero;"/><path d="M256.079,337.696c-0,0 -1.999,25.677 -0,40.964c1.998,15.29 36.605,111.565 36.605,111.565l-38.773,126.78l40.744,-0c-0,-0 37.832,-87.018 42.599,-106.763c4.764,-19.746 7,-45.365 7,-45.365l12.954,28.682l-22.908,123.446l35.353,-0c0,-0 35.694,-117.249 37.124,-141.556c1.429,-24.307 -24.785,-130.589 -24.785,-130.589l-5.905,-50.853l-83.403,5.72l-36.605,37.969Z" style="fill:#474e6b;fill-rule:nonzero;"/><path d="M492.167,209.15l26.252,-4.29c-0,0 5.004,-5.073 11.08,-7.721c6.077,-2.645 10.367,-1.215 18.23,-2.645c7.864,-1.43 -5.361,7.327 -5.361,7.327c-0,-0 16.085,-3.752 17.157,-1.965c1.073,1.787 2.145,16.443 -6.076,21.804c-8.222,5.362 -33.243,0 -33.243,0l-28.039,8.579l0,-21.089Z" style="fill:#f1a39b;fill-rule:nonzero;"/><path d="M352.925,182.074l71.962,25.525l71.081,-6.194l2.791,32.408c0,0 -63.386,10.961 -75.779,10.961c-12.391,0 -49.909,-5.759 -49.909,-5.759l-20.146,-56.941Z" style="fill:#d7d7d7;fill-rule:nonzero;"/><path d="M365.338,132.984c1.158,3.626 3.337,6.917 6.223,9.399c0.777,0.669 1.63,1.293 2.616,1.564c0.99,0.275 2.142,0.141 2.888,-0.563c0.747,-0.701 0.901,-2.03 0.169,-2.748c-0.823,-0.809 -2.348,-0.449 -3.005,0.503c-0.661,0.95 -0.612,2.239 -0.249,3.337c0.929,2.791 3.892,4.759 6.823,4.536" style="fill:none;fill-rule:nonzero;stroke:#474e6b;stroke-width:0.5px;"/><path d="M287.996,105.706c0,-0 -1.026,10.26 -3.706,21.198c-2.682,10.935 -9.293,14.123 -12.868,21.018c-3.574,6.894 -4.827,26.019 -4.827,26.019l10.701,6.552c-0,-0 1.81,-13.166 7.172,-19.6c5.361,-6.434 6.256,-7.149 6.256,-7.149c0,0 -6.076,13.406 -6.791,18.768c-0.715,5.361 -0.915,10.257 -0.915,10.257c-0,0 6.991,1.896 18.25,2.431c11.261,0.537 51.658,-3.126 51.658,-3.126l9.466,-3.669c-0,0 1.527,-11.186 -0.398,-19.173l-1.924,-7.99c-0,-0 5.719,13.226 6.076,19.66l0.358,6.434l8.756,-7.149c-0,-0 2.977,-11.467 -2.502,-22.265c-5.476,-10.798 -7.73,-13.197 -8.511,-18.342c-0.783,-5.147 -2.945,-40.311 -2.945,-40.311c0,-0 -11.598,-13.08 -17.14,-15.231c-5.539,-2.15 -4.979,0.338 -11.23,0.198c-6.248,-0.143 -8.013,-1.613 -16.234,-1.075c-8.221,0.534 -22.757,12.096 -25.974,21.747c-3.217,9.651 -2.728,10.798 -2.728,10.798" style="fill:#474e6b;fill-rule:nonzero;"/><path d="M989.263,671.197c-0,9.646 -101.59,17.464 -226.909,17.464c-125.316,-0 -226.907,-7.818 -226.907,-17.464c0,-9.645 101.591,-17.463 226.907,-17.463c125.319,-0 226.909,7.818 226.909,17.463" style="fill:#ceecec;fill-rule:nonzero;"/><rect x="830.421" y="547.224" width="43.097" height="11.175" style="fill:#8acce7;"/><rect x="830.421" y="615.225" width="43.097" height="11.172" style="fill:#8acce7;"/><rect x="839.681" y="550.739" width="24.261" height="70.072" style="fill:#8acce7;"/><path d="M912.495,662.297l-17.812,-19.591c-3.704,-4.072 -8.988,-6.411 -14.499,-6.411l-54.835,-0c-5.508,-0 -10.792,2.339 -14.496,6.411l-15.427,16.972l-8.505,-7.73l15.428,-16.968c5.876,-6.469 14.261,-10.175 23,-10.175l54.835,0c8.742,0 17.127,3.706 23.003,10.175l17.812,19.588l-8.504,7.729Z" style="fill:#8acce7;fill-rule:nonzero;"/><rect x="846.224" y="620.81" width="11.493" height="36.554" style="fill:#8acce7;"/><path d="M804.881,658.432c0,6.349 -5.144,11.493 -11.492,11.493c-6.346,-0 -11.493,-5.144 -11.493,-11.493c-0,-6.348 5.147,-11.492 11.493,-11.492c6.348,-0 11.492,5.144 11.492,11.492" style="fill:#8acce7;fill-rule:nonzero;"/><path d="M863.463,658.432c-0,6.349 -5.144,11.493 -11.493,11.493c-6.348,-0 -11.493,-5.144 -11.493,-11.493c0,-6.348 5.145,-11.492 11.493,-11.492c6.349,-0 11.493,5.144 11.493,11.492" style="fill:#8acce7;fill-rule:nonzero;"/><path d="M924.436,658.432c-0,6.349 -5.145,11.493 -11.493,11.493c-6.345,-0 -11.49,-5.144 -11.49,-11.493c0,-6.348 5.145,-11.492 11.49,-11.492c6.348,-0 11.493,5.144 11.493,11.492" style="fill:#8acce7;fill-rule:nonzero;"/><path d="M842.676,526.576l-60.523,0c-7.015,0 -12.703,5.688 -12.703,12.706c0,7.014 5.688,12.705 12.703,12.705l60.523,-0c7.018,-0 12.705,-5.691 12.705,-12.705c0,-7.018 -5.687,-12.706 -12.705,-12.706" style="fill:#ea55a4;fill-rule:nonzero;"/><path d="M898.2,526.576l-60.521,0c-7.017,0 -12.705,5.688 -12.705,12.706c-0,7.014 5.688,12.705 12.705,12.705l60.521,-0c7.017,-0 12.702,-5.691 12.702,-12.705c-0,-7.018 -5.685,-12.706 -12.702,-12.706" style="fill:#ea55a4;fill-rule:nonzero;"/><path d="M682.363,647.024c-0,0 -16.889,6.709 -25.005,8.599c-8.115,1.89 -10.634,15.654 -10.634,15.654l60.211,-0l0.564,-24.253l-25.136,0Z" style="fill:#474e6b;fill-rule:nonzero;"/><path d="M760.531,456.293l-203.884,-0l0,17.166l-12.027,197.272l7.663,0l16.331,-182.842c0.59,-8.207 5.202,-14.43 10.695,-14.43l158.557,0c5.496,0 10.108,6.223 10.694,14.43l16.332,182.842l7.666,0l-12.027,-214.438Z" style="fill:#8acce7;fill-rule:nonzero;"/><path d="M799.816,462.022l-0,10.091l-59.574,10.672c-15.596,2.791 -28.156,14.381 -32.193,29.703l-31.33,134.536l37.706,-0c0,-0 28.093,-81.07 33.872,-94.951c5.78,-13.877 51.519,-19.908 51.519,-19.908l-4.135,114.859l36.634,2.799l25.828,-126.237c0,0 24.907,-4.529 38.305,-16.205c13.4,-11.673 8.856,-53.941 8.856,-53.941l-105.488,8.582Z" style="fill:#474e6b;fill-rule:nonzero;"/><path d="M858.116,473.46c0,0 14.298,12.474 25.974,15.811c11.679,3.337 24.038,-1.384 24.038,-1.384l-2.351,-20.541l-47.661,6.114Z" style="fill:#d7d7d7;fill-rule:nonzero;"/><path d="M920.432,456.293l-376.295,-0c-7.504,-0 -13.589,-6.082 -13.589,-13.586l0,-1.438c0,-7.504 6.085,-13.589 13.589,-13.589l376.295,-0c7.506,-0 13.588,6.085 13.588,13.589l0,1.438c0,7.504 -6.082,13.586 -13.588,13.586" style="fill:#ddf0fe;fill-rule:nonzero;"/><path d="M920.097,456.293l-203.883,-0l-0,17.166l-12.028,197.272l7.664,0l16.331,-182.842c0.589,-8.207 5.202,-14.43 10.695,-14.43l158.556,0c5.496,0 10.109,6.223 10.695,14.43l16.331,182.842l7.667,0l-12.028,-214.438Z" style="fill:#8acce7;fill-rule:nonzero;"/><path d="M716.213,473.46l-0,-17.166" style="fill:none;fill-rule:nonzero;stroke:#fff;stroke-width:1px;"/><path d="M843.39,413.356l-74.15,-0c-3.752,-0 -6.794,3.039 -6.794,6.794l-0,0.718c-0,3.752 3.042,6.794 6.794,6.794l74.15,0c3.751,0 6.791,-3.042 6.791,-6.794l0,-0.718c0,-3.755 -3.04,-6.794 -6.791,-6.794" style="fill:#7e89a2;fill-rule:nonzero;"/><path d="M718.719,333.15l-98.687,-0c-6.274,-0 -10.535,6.374 -8.136,12.173l31.07,75.039c1.833,4.43 6.157,7.318 10.952,7.318l118.991,-0l-33.383,-80.624c-3.483,-8.418 -11.696,-13.906 -20.807,-13.906" style="fill:#474e6b;fill-rule:nonzero;"/><path d="M684.058,375.155c3.492,5.527 3.838,11.578 0.772,13.517c-3.065,1.936 -8.384,-0.975 -11.876,-6.503c-3.491,-5.527 -3.837,-11.581 -0.772,-13.517c3.066,-1.936 8.384,0.975 11.876,6.503" style="fill:#7e89a2;fill-rule:nonzero;"/><path d="M311.032,178.299l30.884,0.109l22.765,18.733l6.351,102.585l-78.35,0l18.35,-121.427Z" style="fill:#def1ff;fill-rule:nonzero;"/><path d="M311.032,178.299c0,-0 -32.653,2.874 -45.799,16.454c-13.143,13.58 -4.647,59.697 -4.647,59.697l-13.105,104.956c-0.429,3.44 2.116,6.537 5.576,6.783l31.616,2.256c12.353,0.881 23.131,-8.293 24.209,-20.632c4.015,-45.936 11.71,-148.839 2.15,-169.514" style="fill:#d7d7d7;fill-rule:nonzero;"/><path d="M341.915,178.406c0,0 33.12,8.842 36.269,22.666c3.148,13.82 8.604,49.917 8.39,95.836c-0.152,32.342 -1.035,54.641 -1.544,65.002c-0.183,3.703 -3.235,6.594 -6.943,6.594c-7.536,0 -13.598,-6.18 -13.429,-13.712c0.895,-39.788 1.287,-153.866 -22.743,-176.386" style="fill:#d7d7d7;fill-rule:nonzero;"/><path d="M356.825,131.053l-70.149,-0l0,-14.833c0,-23.297 18.885,-42.179 42.179,-42.179c23.295,-0 42.179,18.882 42.179,42.179l0,0.623c0,7.847 -6.362,14.21 -14.209,14.21" style="fill:#474e6b;fill-rule:nonzero;"/><path d="M357.272,98.703c-0,0 -9.771,17.038 -32.051,20.97c0,-0 0,4.172 -2.622,7.032c-2.622,2.859 -1.55,7.623 -3.217,8.101c-1.667,0.477 -4.409,-7.149 -8.579,-5.957c-4.169,1.19 -8.341,18.588 5.84,18.825l-5.611,30.623c0,0 3.575,19.083 17.821,18.842c4.993,-0.085 8.679,-1.655 11.341,-3.6c4.252,-3.108 5.385,-8.97 2.694,-13.494l-0.972,-1.639l3.56,-13.694l3.692,-0.041c10.034,-0.108 18.112,-8.275 18.112,-18.312l0,-28.591c0,0 -9.888,-12.393 -10.008,-19.065" style="fill:#f1a39b;fill-rule:nonzero;"/><path d="M290.725,84.023l-17.121,-21.985l-7.343,8.181l-19.663,-17.532l19.663,28.639l7.343,-8.184l17.121,10.881Z" style="fill:#f6cc60;fill-rule:nonzero;"/><path d="M283.017,99.429l-26.932,-7.151l-0.897,10.958l-26.266,-2.071l32.98,10.912l0.901,-10.958l20.214,-1.69Z" style="fill:#f6cc60;fill-rule:nonzero;"/><path d="M307.236,68.355l-2.965,-27.707l-10.555,3.086l-7.47,-25.262l1.619,34.699l10.555,-3.083l8.816,18.267Z" style="fill:#f6cc60;fill-rule:nonzero;"/><path d="M590.043,270.087c-0,-0 -9.606,18.813 -6.28,24.724c3.323,5.911 26.234,4.435 26.234,4.435c0,-0 -15.891,10.106 -15.891,18.17c0,8.064 24.756,15.733 24.756,15.733c-0,0 -25.125,2.159 -26.234,9.806c-1.107,7.649 12.193,20.212 12.193,20.212c0,-0 -22.536,-6.652 -26.231,-0c-3.694,6.648 7.389,25.124 7.389,25.124c0,0 -20.323,-11.087 -26.234,-5.542c-5.913,5.542 -2.956,21.799 -2.956,21.799c-0,-0 -10.346,-10.715 -19.583,-8.868c-9.236,1.848 -14.904,23.646 -14.904,23.646c-0,0 -6.526,-21.058 -16.5,-23.277c-9.977,-2.216 -20.246,6.283 -20.246,6.283c-0,-0 -0.912,-13.303 -8.07,-13.303c-7.157,-0 -26.817,3.663 -26.817,3.663c-0,-0 6.225,-17.701 0.38,-23.984c-5.845,-6.279 -16.122,-4.066 -16.122,-4.066c-0,0 12.17,-9.236 10.114,-17.363c-2.053,-8.13 -20.898,-14.13 -20.898,-14.13c0,0 17.87,-8.647 19.283,-15.733c1.409,-7.086 -41.37,-37.51 -41.37,-37.51c-0,0 45.836,19.194 51.472,13.652c5.634,-5.542 -0.62,-18.424 -0.62,-18.424c-0,-0 20.1,6.368 24.578,3.42c4.478,-2.948 6.629,-22.488 6.629,-22.488c-0,0 12.816,15.159 21.315,14.021c8.499,-1.139 16.074,-12.634 16.074,-12.634c0,-0 -4.249,12.631 13.486,15.202c17.735,2.573 22.536,-12.088 22.536,-12.088c0,0 -4.801,10.246 7.021,15.965c11.824,5.716 25.496,-6.445 25.496,-6.445" style="fill:#ceecec;fill-rule:nonzero;"/><path d="M571.199,264.513l26.603,-13.598l-5.542,-10.646l-21.061,24.244Z" style="fill:#ceecec;fill-rule:nonzero;"/><path d="M565.288,264.513l8.127,-24.244l-8.127,0l0,24.244Z" style="fill:#ceecec;fill-rule:nonzero;"/><path d="M573.416,395.311l16.997,12.194l7.39,-6.097l-24.387,-6.097Z" style="fill:#ceecec;fill-rule:nonzero;"/><path d="M565.288,395.311l17.367,30.721l7.017,-6.706l-24.384,-24.015Z" style="fill:#ceecec;fill-rule:nonzero;"/><path d="M444.772,371.425l-17.618,7.818l3.274,4.17l14.344,-11.988Z" style="fill:#ceecec;fill-rule:nonzero;"/><path d="M396.739,49.166l2.737,69.153c0.46,11.668 9.951,20.947 21.627,21.147l180.698,3.077c12.308,0.209 22.397,-9.708 22.397,-22.016l-0,-87.166c-0,-12.866 -10.984,-22.991 -23.809,-21.948l-183.435,14.936c-11.764,0.958 -20.681,11.021 -20.215,22.817" style="fill:#ceecec;fill-rule:nonzero;"/><path d="M425.454,129.579l-9.056,17.158l12.393,2.951l-10.383,15.159l28.773,-20.492l-5.047,-1.81l5.047,-12.966l-21.727,0Z" style="fill:#ceecec;fill-rule:nonzero;"/><path d="M529.698,84.51l-38.953,0c-2.254,0 -4.078,1.827 -4.078,4.078l-0,34.235c-0,2.253 1.824,4.081 4.078,4.081l38.953,-0c2.254,-0 4.078,-1.828 4.078,-4.081l-0,-34.235c-0,-2.251 -1.824,-4.078 -4.078,-4.078" style="fill:#fff;fill-rule:nonzero;"/><path d="M486.666,120.702l7.824,0l6.8,-13.32l4.455,5.619l6.812,0.054l4.166,4.221l6.866,-17.277l4.618,5.064l5.528,-8.05l0.037,26.363c0.003,1.947 -1.575,3.526 -3.52,3.526l-40.066,-0c-1.944,-0 -3.52,-1.576 -3.52,-3.521l0,-2.679Z" style="fill:#87cce9;fill-rule:nonzero;"/><path d="M494.866,121.316l-8.201,0l-0,-1.229l7.449,-0l7.063,-13.835l4.87,6.137l6.769,0.054l3.683,3.732l6.883,-17.318l4.756,5.219l5.09,-7.41l1.012,0.695l-5.965,8.691l-4.478,-4.913l-6.852,17.24l-4.647,-4.712l-6.848,-0.055l-4.047,-5.098l-6.537,12.802Z" style="fill:#ea55a4;fill-rule:nonzero;"/><path d="M531.118,97.014l3.789,2.554l0,-4.662l-3.789,2.108Z" style="fill:#ea55a4;fill-rule:nonzero;"/><path d="M588.118,105.968c-0,-6.402 0.005,-12.808 -0.012,-19.211c0,-0.523 0.097,-0.706 0.672,-0.697c2.868,0.031 5.739,0.023 8.607,0.003c0.461,-0.003 0.598,0.111 0.598,0.586c-0.014,12.891 -0.014,25.779 0,38.67c0,0.492 -0.169,0.575 -0.612,0.572c-2.868,-0.017 -5.739,-0.023 -8.607,0.003c-0.518,0.006 -0.658,-0.132 -0.658,-0.655c0.017,-6.423 0.012,-12.845 0.012,-19.271" style="fill:#61d398;fill-rule:nonzero;"/><path d="M551.602,119.233c-0,-2.173 0.008,-4.347 -0.012,-6.52c-0.002,-0.214 0.158,-0.263 0.698,-0.26c2.848,0.008 5.696,0.008 8.548,-0c0.477,-0 0.631,0.043 0.631,0.234c-0.014,4.364 -0.014,8.728 0,13.092c0.003,0.2 -0.154,0.248 -0.666,0.248c-2.825,-0.008 -5.656,-0.011 -8.484,0c-0.564,0.003 -0.729,-0.051 -0.727,-0.271c0.02,-2.174 0.012,-4.35 0.012,-6.523" style="fill:#61d398;fill-rule:nonzero;"/><path d="M563.769,110.861c-0,-4.784 0.011,-9.569 -0.014,-14.353c-0.003,-0.586 0.171,-0.723 0.732,-0.717c2.808,0.025 5.616,0.025 8.424,-0c0.518,-0.003 0.663,0.14 0.663,0.66c-0.014,9.631 -0.017,19.26 0.003,28.891c0,0.56 -0.16,0.692 -0.7,0.686c-2.808,-0.029 -5.617,-0.029 -8.425,0c-0.549,0.006 -0.697,-0.137 -0.695,-0.692c0.02,-4.824 0.012,-9.651 0.012,-14.475" style="fill:#61d398;fill-rule:nonzero;"/><path d="M576.017,116.48c0,-2.932 0.012,-5.866 -0.011,-8.797c-0.003,-0.503 0.151,-0.629 0.637,-0.626c2.849,0.02 5.697,0.026 8.548,0c0.566,-0.006 0.695,0.189 0.695,0.721c-0.018,5.802 -0.018,11.604 -0,17.406c-0,0.532 -0.132,0.724 -0.695,0.718c-2.851,-0.026 -5.699,-0.02 -8.55,-0c-0.484,0.003 -0.638,-0.123 -0.635,-0.626c0.023,-2.931 0.011,-5.865 0.011,-8.796" style="fill:#61d398;fill-rule:nonzero;"/><path d="M804.253,647.024c0,0 -16.889,6.709 -25.004,8.599c-8.116,1.89 -10.635,15.654 -10.635,15.654l60.212,-0l0.563,-24.253l-25.136,0Z" style="fill:#474e6b;fill-rule:nonzero;"/><path d="M832.314,649.823l-28.061,-2.8" style="fill:none;fill-rule:nonzero;stroke:#fff;stroke-width:0.5px;"/><path d="M799.816,532.164l2.419,-35.625c0,0 1.155,-23.079 22.74,-23.079" style="fill:none;fill-rule:nonzero;stroke:#fff;stroke-width:0.5px;"/><path d="M1011.97,167.208l-80.069,-0c-13.129,-0 -23.772,-10.643 -23.772,-23.772c-0,-13.125 10.643,-23.769 23.772,-23.769l80.069,0c13.128,0 23.771,10.644 23.771,23.769c0,13.129 -10.643,23.772 -23.771,23.772" style="fill:#ceecec;fill-rule:nonzero;"/><path d="M938.619,158.987l-7.972,12.153l7.795,1.072l-7.795,15.728l26.094,-17.515l-7.149,-1.43l10.575,-7.149l-21.548,-2.859Z" style="fill:#ceecec;fill-rule:nonzero;"/><path d="M694.629,186.768c-0,0 9.757,-19.107 6.378,-25.113c-3.375,-6.006 -26.643,-4.504 -26.643,-4.504c-0,-0 16.136,-10.264 16.136,-18.455c0,-8.189 -25.142,-15.981 -25.142,-15.981c0,-0 25.519,-2.192 26.644,-9.959c1.125,-7.767 -12.385,-20.528 -12.385,-20.528c0,0 22.892,6.755 26.644,0c3.755,-6.754 -7.504,-25.518 -7.504,-25.518c-0,0 20.641,11.26 26.643,5.63c6.006,-5.63 3.003,-22.143 3.003,-22.143c0,0 10.507,10.884 19.889,9.009c9.381,-1.877 15.141,-24.02 15.141,-24.02c-0,0 6.628,21.393 16.759,23.644c10.134,2.251 20.563,-6.379 20.563,-6.379c0,0 0.924,13.51 8.195,13.51c7.27,0 27.24,-3.719 27.24,-3.719c0,-0 -6.324,17.978 -0.389,24.357c5.938,6.382 16.376,4.128 16.376,4.128c0,-0 -12.361,9.382 -10.273,17.638c2.085,8.256 21.225,14.35 21.225,14.35c-0,-0 -18.148,8.785 -19.584,15.981c-1.433,7.199 12.569,27.282 12.569,27.282c0,-0 -17.106,-8.678 -22.83,-3.052c-5.723,5.63 13.085,33.058 13.085,33.058c0,0 -32.869,-20.809 -37.419,-17.816c-4.55,2.993 -6.732,22.84 -6.732,22.84c-0,-0 -13.017,-15.398 -21.65,-14.24c-8.632,1.158 -16.324,12.832 -16.324,12.832c-0,0 4.313,-12.829 -13.698,-15.442c-18.015,-2.611 -22.892,12.277 -22.892,12.277c0,0 4.877,-10.406 -7.131,-16.214c-12.008,-5.805 -25.894,6.547 -25.894,6.547" style="fill:#ceecec;fill-rule:nonzero;"/><path d="M708.046,193.443l-23.826,12.179l4.964,9.534l18.862,-21.713Z" style="fill:#ceecec;fill-rule:nonzero;"/><path d="M723.476,193.443l-7.281,21.713l7.281,0l-0,-21.713Z" style="fill:#ceecec;fill-rule:nonzero;"/><path d="M695.926,86.43l-15.222,-10.92l-6.62,5.459l21.842,5.461Z" style="fill:#ceecec;fill-rule:nonzero;"/><path d="M713.341,66.161l-15.554,-27.515l-6.288,6.005l21.842,21.51Z" style="fill:#ceecec;fill-rule:nonzero;"/><path d="M841.548,77.418l15.779,-7l-2.931,-3.735l-12.848,10.735Z" style="fill:#ceecec;fill-rule:nonzero;"/><g id="time"><path d="M1032.31,513.918l10.154,-5.656c12.136,-6.763 20.878,-18.31 24.089,-31.831l3.538,-14.901l-69.563,-16.526l-3.543,14.902c-3.211,13.517 -0.6,27.764 7.201,39.262l6.379,9.408l-0.343,1.441l-9.925,5.534c-12.139,6.763 -20.881,18.31 -24.093,31.83l-3.537,14.901l69.563,16.526l3.54,-14.902c3.211,-13.52 0.6,-27.763 -7.201,-39.265l-6.522,-9.617l-0.181,-0.042l0.264,-1.107l0.18,0.043Z" style="fill:#def1ff;fill-rule:nonzero;"/><path d="M997.987,428.028l82.013,19.482l-4.106,17.286l-82.014,-19.482l4.107,-17.286Z" style="fill:#87cce9;"/><path d="M966.867,559.018l82.014,19.482l-4.106,17.284l-82.014,-19.483l4.106,-17.283Z" style="fill:#87cce9;"/><path d="M1013.56,537.369l-14.732,4.163c-9.726,2.748 -16.263,8.384 -17.947,15.471l-1.201,5.058l56.385,13.395l1.201,-5.059c1.685,-7.083 -1.621,-15.062 -9.068,-21.887l-11.535,-10.572l-3.18,-0.652l0.077,0.083Z" style="fill:#f6cc60;fill-rule:nonzero;"/><path d="M1031.81,490.397c-5.739,-2.45 -11.13,-5.705 -16.989,-7.846c-3.7,-1.353 -7.572,-2.222 -11.49,-2.637c1.121,5.476 3.275,10.746 6.466,15.453l0.312,0.509l9.259,16.64l3.197,0.592l16.603,-10.763c3.537,-1.971 6.711,-4.456 9.514,-7.287c-5.797,-0.809 -11.487,-2.362 -16.872,-4.661" style="fill:#f6cc60;fill-rule:nonzero;"/><path d="M1019.17,518.08c-1.63,-0.389 -2.639,-2.024 -2.25,-3.654l1.141,-4.804c0.389,-1.63 2.021,-2.64 3.654,-2.251c1.63,0.386 2.637,2.022 2.251,3.652l-1.144,4.807c-0.386,1.63 -2.022,2.636 -3.652,2.25" style="fill:#f6cc60;fill-rule:nonzero;"/><path d="M1013.74,544.061c-1.63,-0.386 -2.639,-2.024 -2.251,-3.652l1.141,-4.807c0.389,-1.63 2.022,-2.636 3.655,-2.25c1.63,0.386 2.637,2.022 2.25,3.652l-1.143,4.807c-0.384,1.63 -2.022,2.636 -3.652,2.25" style="fill:#f6cc60;fill-rule:nonzero;"/><path d="M1017.38,528.752c-1.627,-0.389 -2.637,-2.025 -2.248,-3.655c0.386,-1.63 2.022,-2.636 3.652,-2.247c1.633,0.386 2.637,2.021 2.25,3.651c-0.386,1.63 -2.024,2.637 -3.654,2.251" style="fill:#f6cc60;fill-rule:nonzero;"/></g><g id="Money"><path d="M172.012,353.3c0,18.699 -15.158,33.857 -33.857,33.857c-18.696,0 -33.855,-15.158 -33.855,-33.857c-0,-18.699 15.159,-33.858 33.855,-33.858c18.699,0 33.857,15.159 33.857,33.858" style="fill:#f6cc60;fill-rule:nonzero;"/><path d="M137.408,369.855l-0,-2.522c-2.407,-0 -5.107,-0.567 -8.101,-1.702l-0,-3.487c3.09,1.436 5.79,2.154 8.101,2.154l-0,-10.89c-2.776,-1.695 -4.673,-3.192 -5.691,-4.491c-1.019,-1.299 -1.528,-2.851 -1.528,-4.655c-0,-2.024 0.659,-3.702 1.979,-5.035c1.319,-1.333 3.066,-2.082 5.24,-2.246l-0,-2.543l2.009,0l0,2.543c1.996,0 4.191,0.458 6.583,1.374l0,3.302c-2.625,-1.135 -4.819,-1.77 -6.583,-1.907l0,10.808c0.739,0.451 1.292,0.786 1.661,1.004c2.092,1.272 3.521,2.42 4.287,3.446c0.765,1.025 1.148,2.297 1.148,3.814c0,2.16 -0.636,4.003 -1.907,5.527c-1.272,1.524 -3.001,2.519 -5.189,2.984l0,2.522l-2.009,0Zm2.009,-5.803c2.366,-0.848 3.548,-2.386 3.548,-4.615c0,-0.97 -0.225,-1.767 -0.677,-2.389c-0.451,-0.622 -1.408,-1.439 -2.871,-2.45l0,9.454Zm-2.009,-14.827l-0,-9.352c-2.448,0.766 -3.671,2.201 -3.671,4.307c-0,1.039 0.253,1.91 0.758,2.614c0.506,0.704 1.477,1.515 2.913,2.431Z" style="fill:#fff;fill-rule:nonzero;"/></g><g id="Money1" serif:id="Money"><path d="M123.645,427.901c6.328,30.978 -13.655,61.224 -44.633,67.552c-30.981,6.328 -61.224,-13.655 -67.552,-44.633c-6.328,-30.98 13.652,-61.224 44.632,-67.552c30.981,-6.328 61.224,13.655 67.553,44.633" style="fill:#f6cc60;fill-rule:nonzero;"/><path d="M71.763,466.207l-0.841,-4.119c-3.929,0.803 -8.528,0.777 -13.796,-0.077l-1.163,-5.693c5.525,1.314 10.173,1.585 13.946,0.814l-3.632,-17.782c-5.098,-1.843 -8.695,-3.654 -10.791,-5.435c-2.097,-1.782 -3.446,-4.146 -4.048,-7.093c-0.675,-3.304 -0.158,-6.264 1.552,-8.881c1.71,-2.617 4.312,-4.422 7.807,-5.415l-0.848,-4.152l3.282,-0.671l0.848,4.153c3.259,-0.666 6.995,-0.65 11.208,0.047l1.101,5.392c-4.665,-0.977 -8.46,-1.284 -11.386,-0.918l3.606,17.648c1.356,0.49 2.372,0.852 3.047,1.087c3.84,1.378 6.556,2.777 8.149,4.196c1.592,1.419 2.641,3.367 3.148,5.845c0.72,3.528 0.297,6.748 -1.271,9.662c-1.568,2.913 -4.06,5.114 -7.477,6.603l0.841,4.119l-3.282,0.67Zm1.346,-10.147c3.58,-2.173 4.998,-5.079 4.254,-8.718c-0.323,-1.586 -0.958,-2.811 -1.902,-3.676c-0.944,-0.865 -2.779,-1.88 -5.506,-3.044l3.154,15.438Zm-8.228,-23.542l-3.119,-15.27c-3.741,2.066 -5.26,4.819 -4.558,8.257c0.346,1.697 1.05,3.036 2.111,4.017c1.061,0.981 2.916,1.98 5.566,2.996Z" style="fill:#fff;fill-rule:nonzero;"/></g><g id="Money2" serif:id="Money"><path d="M211.055,482.529c0,21.564 -17.48,39.045 -39.045,39.045c-21.561,0 -39.045,-17.481 -39.045,-39.045c0,-21.564 17.484,-39.045 39.045,-39.045c21.565,0 39.045,17.481 39.045,39.045" style="fill:#f6cc60;fill-rule:nonzero;"/><path d="M171.012,507.908l0,-3.363c-3.208,-0 -6.808,-0.757 -10.8,-2.27l-0,-4.648c4.119,1.914 7.72,2.871 10.8,2.871l0,-14.52c-3.7,-2.26 -6.23,-4.256 -7.588,-5.988c-1.358,-1.732 -2.037,-3.801 -2.037,-6.207c0,-2.698 0.88,-4.935 2.639,-6.713c1.759,-1.777 4.088,-2.775 6.986,-2.994l0,-3.39l2.68,-0l-0,3.39c2.661,0 5.587,0.611 8.777,1.832l0,4.403c-3.5,-1.514 -6.425,-2.361 -8.777,-2.543l-0,14.41c0.984,0.601 1.723,1.048 2.215,1.34c2.789,1.695 4.694,3.226 5.715,4.593c1.021,1.367 1.531,3.063 1.531,5.086c-0,2.88 -0.848,5.337 -2.543,7.369c-1.695,2.033 -4.001,3.359 -6.918,3.979l-0,3.363l-2.68,0Zm2.68,-7.738c3.154,-1.13 4.73,-3.181 4.73,-6.152c0,-1.295 -0.3,-2.357 -0.902,-3.186c-0.601,-0.829 -1.877,-1.919 -3.828,-3.268l-0,12.606Zm-2.68,-19.77l0,-12.468c-3.263,1.02 -4.894,2.934 -4.894,5.742c-0,1.385 0.337,2.547 1.011,3.486c0.675,0.939 1.969,2.019 3.883,3.24Z" style="fill:#fff;fill-rule:nonzero;"/></g><path d="M290.633,105.063c2.17,5.525 -0.046,11.862 -3.403,16.758c-3.358,4.898 -7.821,8.987 -10.921,14.052c-3.812,6.228 -5.359,13.809 -4.295,21.032" style="fill:none;fill-rule:nonzero;stroke:#474e6b;stroke-width:0.75px;"/><path d="M311.367,76.085c-7.051,-0.761 -14.298,4.092 -16.276,10.903c-0.721,2.474 -0.804,5.085 -1.301,7.613c-0.501,2.528 -1.525,5.116 -3.609,6.628" style="fill:none;fill-rule:nonzero;stroke:#474e6b;stroke-width:0.75px;"/><path d="M341.731,75.162c8.734,3.569 17.953,7.515 23.337,15.262c4.07,5.859 5.405,13.537 3.549,20.423" style="fill:none;fill-rule:nonzero;stroke:#474e6b;stroke-width:0.75px;"/><path d="M289.627,119.777c-4.675,12.997 -13.9,24.307 -25.69,31.499" style="fill:none;fill-rule:nonzero;stroke:#474e6b;stroke-width:0.75px;"/><path d="M298.696,113.323l-0.523,-7.098l-6.394,0.037l-0,-5.719l6.434,-0c2.957,-0 5.444,2.311 5.665,5.259l0.52,7.103l-5.702,0.418Z" style="fill:#ea55a4;fill-rule:nonzero;"/><path d="M298.728,95.33l-6.474,-0l0,-5.719l6.474,-0l-0.04,-8.459l5.72,0l-0,8.502c-0,3.128 -2.548,5.676 -5.68,5.676" style="fill:#ea55a4;fill-rule:nonzero;"/><path d="M322.342,96.637l-7.006,-0.432c-2.988,-0.186 -5.327,-2.677 -5.327,-5.671l-0,-9.382l5.719,0l0,9.382l6.966,0.395l-0.352,5.708Z" style="fill:#ea55a4;fill-rule:nonzero;"/><path d="M313.463,112.845l-5.719,-0l0,-6.354c0,-3.131 2.548,-5.679 5.679,-5.679l8.382,-0l-0,5.719l-8.382,-0l0.04,6.314Z" style="fill:#ea55a4;fill-rule:nonzero;"/><path d="M286.675,225.736l56.174,22.542l49.131,-6.182l3.703,29.637c0,-0 -49.276,7.787 -58.993,7.787c-9.717,-0 -47.063,-6.12 -47.063,-6.12l-2.952,-47.664Z" style="fill:#d7d7d7;fill-rule:nonzero;"/><path d="M392.514,246.376l18.25,-4.798c0,-0 7.544,-7.987 13.366,-11.29c5.822,-3.303 5.01,-3.769 12.325,-4.507c7.312,-0.735 -2.339,7.487 -2.339,7.487c-0,-0 17.795,-3.543 22.133,-3.286c4.338,0.258 2.531,6.074 2.531,6.074c-0,-0 -12.154,19.66 -18.23,22.911c-6.077,3.254 -24.75,1.467 -24.75,1.467l-20.484,8.367l-2.802,-22.425Z" style="fill:#f1a39b;fill-rule:nonzero;"/><path d="M464.935,122.002l-43.34,-0c-1.455,-0 -2.636,-1.181 -2.636,-2.637l-0,-24.687c-0,-1.455 1.181,-2.636 2.636,-2.636l43.34,-0c1.456,-0 2.637,1.181 2.637,2.636l-0,24.687c-0,1.456 -1.181,2.637 -2.637,2.637" style="fill:#474e6b;fill-rule:nonzero;"/><path d="M470.153,126.903l-53.774,-0c-1.868,-0 -3.378,-1.513 -3.378,-3.377c0,-0.844 0.681,-1.525 1.525,-1.525l57.48,0c0.841,0 1.525,0.681 1.525,1.525c-0,1.864 -1.513,3.377 -3.378,3.377" style="fill:#7e89a2;fill-rule:nonzero;"/><rect x="424.604" y="91.192" width="37.321" height="30.809" style="fill:#fff;"/><path d="M459.269,85.293l-32.007,0c-1.467,0 -2.657,1.19 -2.657,2.657l0,3.243l37.321,-0l-0,-3.243c-0,-1.467 -1.19,-2.657 -2.657,-2.657" style="fill:#61d398;fill-rule:nonzero;"/><rect x="427.507" y="95.533" width="3.992" height="3.492" style="fill:#f6cc60;"/><rect x="427.507" y="99.408" width="3.992" height="3.492" style="fill:#f6cc60;"/><rect x="427.507" y="103.28" width="3.992" height="3.492" style="fill:#f6cc60;"/><rect x="427.507" y="107.212" width="3.992" height="3.492" style="fill:#f6cc60;"/><rect x="427.507" y="111.144" width="3.992" height="3.492" style="fill:#f6cc60;"/><rect x="427.507" y="115.016" width="3.992" height="3.492" style="fill:#f6cc60;"/><rect x="451.098" y="95.533" width="8.996" height="3.492" style="fill:#ea55a4;"/><rect x="451.098" y="99.408" width="8.996" height="3.492" style="fill:#ea55a4;"/><rect x="451.098" y="103.28" width="8.996" height="3.492" style="fill:#ea55a4;"/><rect x="451.098" y="107.212" width="8.996" height="3.492" style="fill:#ea55a4;"/><rect x="451.098" y="111.144" width="8.996" height="3.492" style="fill:#ea55a4;"/><rect x="451.098" y="115.016" width="8.996" height="3.492" style="fill:#ea55a4;"/><rect x="441.685" y="95.533" width="8.996" height="3.492" style="fill:#87cce9;"/><rect x="441.685" y="99.408" width="8.996" height="3.492" style="fill:#87cce9;"/><rect x="441.685" y="103.28" width="8.996" height="3.492" style="fill:#87cce9;"/><rect x="441.685" y="107.212" width="8.996" height="3.492" style="fill:#87cce9;"/><rect x="441.685" y="111.144" width="8.996" height="3.492" style="fill:#87cce9;"/><rect x="441.685" y="115.016" width="8.996" height="3.492" style="fill:#87cce9;"/><rect x="431.79" y="95.533" width="9.54" height="3.492" style="fill:#61d398;"/><rect x="431.79" y="99.408" width="9.54" height="3.492" style="fill:#61d398;"/><rect x="431.79" y="103.28" width="9.54" height="3.492" style="fill:#61d398;"/><rect x="431.79" y="107.212" width="9.54" height="3.492" style="fill:#61d398;"/><rect x="431.79" y="111.144" width="9.54" height="3.492" style="fill:#61d398;"/><rect x="431.79" y="115.016" width="9.54" height="3.492" style="fill:#61d398;"/><path d="M98.624,205.961c-0,-0 3.142,-18.722 -1.307,-22.887c-4.452,-4.167 -23.682,3.3 -23.682,3.3c-0,0 10.881,-12.963 8.696,-19.871c-2.182,-6.912 -25.47,-6.785 -25.47,-6.785c0,0 20.945,-8.647 19.827,-15.501c-1.122,-6.857 -15.92,-14.019 -15.92,-14.019c0,-0 21.117,-0.402 22.482,-7.101c1.368,-6.699 -13.134,-19.531 -13.134,-19.531c-0,-0 20.416,3.999 23.984,-2.35c3.564,-6.349 -3.369,-19.48 -3.369,-19.48c0,-0 11.766,6.383 19.182,2.298c7.416,-4.082 6.373,-24.296 6.373,-24.296c0,-0 11.292,16.28 20.441,15.48c9.148,-0.799 15.648,-10.86 15.648,-10.86c0,0 4.381,11.152 10.514,9.214c6.133,-1.938 21.991,-10.394 21.991,-10.394c-0,0 -0.546,16.853 6.164,20.654c6.709,3.8 14.915,-0.878 14.915,-0.878c-0,-0 -7.928,11.206 -3.966,17.617c3.959,6.411 21.731,6.452 21.731,6.452c-0,0 -12.973,12.246 -12.263,18.702c0.71,6.452 45.601,20.948 45.601,20.948c-0,0 -44.473,-4.044 -47.804,2.23c-3.33,6.273 5.516,15.621 5.516,15.621c0,-0 -18.948,-0.017 -21.987,3.722c-3.04,3.735 0.404,21.064 0.404,21.064c0,0 -15.086,-9.525 -22.059,-6.246c-6.974,3.276 -10.353,15.175 -10.353,15.175c0,0 0.223,-11.975 -15.672,-9.378c-15.896,2.593 -16.043,16.458 -16.043,16.458c-0,0 1.344,-10.081 -10.336,-11.783c-11.679,-1.697 -20.104,12.425 -20.104,12.425" style="fill:#ceecec;fill-rule:nonzero;"/><g transform="matrix(1,0,0,1,271.387,178.603)"><g transform="matrix(28,0,0,28,191.972,144.973)"><rect x="0.089" y="-0.711" width="0.094" height="0.711" style="fill:#595959;fill-rule:nonzero;"/></g><g transform="matrix(28,0,0,28,206.971,144.973)"><path d="M0.153,-0.528l0.003,0.058c0.038,-0.045 0.091,-0.068 0.157,-0.068c0.073,-0 0.124,0.028 0.15,0.085c0.018,-0.026 0.041,-0.046 0.069,-0.062c0.028,-0.015 0.061,-0.023 0.1,-0.023c0.116,-0 0.175,0.061 0.177,0.184l-0,0.354l-0.091,0l0,-0.349c0,-0.037 -0.008,-0.066 -0.026,-0.084c-0.017,-0.019 -0.046,-0.028 -0.087,-0.028c-0.033,-0 -0.061,0.01 -0.083,0.03c-0.022,0.02 -0.035,0.047 -0.039,0.08l0,0.351l-0.09,0l-0,-0.346c-0,-0.077 -0.038,-0.115 -0.113,-0.115c-0.059,-0 -0.1,0.025 -0.122,0.075l0,0.386l-0.09,0l-0,-0.528l0.085,-0Z" style="fill:#595959;fill-rule:nonzero;"/></g><g transform="matrix(28,0,0,28,231.512,144.973)"><path d="M0.288,0.01c-0.072,-0 -0.13,-0.024 -0.175,-0.071c-0.045,-0.047 -0.068,-0.11 -0.068,-0.189l0,-0.016c0,-0.053 0.01,-0.099 0.03,-0.14c0.02,-0.042 0.048,-0.074 0.084,-0.097c0.036,-0.023 0.075,-0.035 0.117,-0.035c0.069,-0 0.122,0.023 0.161,0.068c0.038,0.045 0.057,0.11 0.057,0.194l-0,0.038l-0.358,-0c0.001,0.052 0.016,0.094 0.045,0.126c0.03,0.032 0.067,0.048 0.111,0.048c0.032,0 0.059,-0.006 0.082,-0.019c0.022,-0.014 0.041,-0.031 0.058,-0.052l0.055,0.043c-0.044,0.068 -0.111,0.102 -0.199,0.102Zm-0.012,-0.474c-0.036,0 -0.067,0.013 -0.091,0.04c-0.025,0.026 -0.04,0.064 -0.046,0.112l0.264,-0l0,-0.007c-0.002,-0.046 -0.015,-0.082 -0.037,-0.107c-0.022,-0.025 -0.052,-0.038 -0.09,-0.038Z" style="fill:#595959;fill-rule:nonzero;"/></g><g transform="matrix(28,0,0,28,246.346,144.973)"><path d="M0.395,-0c-0.006,-0.01 -0.01,-0.029 -0.013,-0.056c-0.042,0.044 -0.092,0.066 -0.151,0.066c-0.052,-0 -0.094,-0.015 -0.128,-0.044c-0.033,-0.03 -0.05,-0.067 -0.05,-0.112c0,-0.055 0.021,-0.098 0.063,-0.129c0.042,-0.03 0.101,-0.045 0.176,-0.045l0.088,-0l0,-0.042c0,-0.031 -0.009,-0.057 -0.028,-0.075c-0.019,-0.019 -0.047,-0.028 -0.083,-0.028c-0.033,-0 -0.06,0.008 -0.081,0.024c-0.022,0.016 -0.033,0.036 -0.033,0.059l-0.091,0c-0,-0.026 0.009,-0.052 0.028,-0.076c0.019,-0.025 0.044,-0.044 0.076,-0.059c0.032,-0.014 0.068,-0.021 0.106,-0.021c0.061,-0 0.108,0.015 0.143,0.046c0.034,0.03 0.052,0.072 0.054,0.125l-0,0.243c-0,0.049 0.006,0.088 0.018,0.116l0,0.008l-0.094,0Zm-0.15,-0.069c0.028,0 0.055,-0.007 0.08,-0.022c0.026,-0.014 0.044,-0.034 0.055,-0.057l0,-0.108l-0.07,-0c-0.111,-0 -0.166,0.032 -0.166,0.097c-0,0.028 0.009,0.05 0.028,0.066c0.019,0.016 0.043,0.024 0.073,0.024Z" style="fill:#595959;fill-rule:nonzero;"/></g><g transform="matrix(28,0,0,28,261.577,144.973)"><path d="M0.154,-0.528l0.003,0.066c0.04,-0.051 0.093,-0.076 0.158,-0.076c0.112,-0 0.168,0.063 0.169,0.189l-0,0.349l-0.09,-0l-0,-0.35c-0.001,-0.038 -0.009,-0.066 -0.027,-0.084c-0.017,-0.018 -0.043,-0.027 -0.079,-0.027c-0.03,-0 -0.055,0.007 -0.078,0.023c-0.022,0.016 -0.039,0.036 -0.051,0.062l-0,0.376l-0.091,0l0,-0.528l0.086,-0Z" style="fill:#595959;fill-rule:nonzero;"/></g><g transform="matrix(28,0,0,28,277.026,144.973)"><path d="M0.191,-0.656l-0,0.128l0.099,-0l-0,0.07l-0.099,-0l-0,0.327c-0,0.021 0.004,0.037 0.013,0.048c0.009,0.01 0.024,0.016 0.045,0.016c0.01,-0 0.025,-0.002 0.043,-0.006l-0,0.073c-0.024,0.007 -0.047,0.01 -0.069,0.01c-0.041,-0 -0.071,-0.012 -0.092,-0.037c-0.02,-0.024 -0.03,-0.059 -0.03,-0.104l-0,-0.327l-0.097,-0l0,-0.07l0.097,-0l-0,-0.128l0.09,-0Z" style="fill:#595959;fill-rule:nonzero;"/></g><g transform="matrix(28,0,0,28,201.256,182.213)"><path d="M0.574,-0.634l-0.229,0l0,0.634l-0.093,-0l-0,-0.634l-0.228,0l-0,-0.077l0.55,0l-0,0.077Z" style="fill:#595959;fill-rule:nonzero;"/></g><g transform="matrix(28,0,0,28,217.963,182.213)"><path d="M0.629,-0l-0.094,-0l-0,-0.329l-0.359,0l0,0.329l-0.093,-0l-0,-0.711l0.093,0l0,0.306l0.359,-0l-0,-0.306l0.094,0l-0,0.711Z" style="fill:#595959;fill-rule:nonzero;"/></g><g transform="matrix(28,0,0,28,237.924,182.213)"><rect x="0.089" y="-0.711" width="0.094" height="0.711" style="fill:#595959;fill-rule:nonzero;"/></g><g transform="matrix(28,0,0,28,245.539,182.213)"><path d="M0.292,-0.317c-0.08,-0.023 -0.139,-0.051 -0.176,-0.085c-0.036,-0.034 -0.054,-0.075 -0.054,-0.125c-0,-0.056 0.022,-0.102 0.067,-0.139c0.044,-0.036 0.103,-0.055 0.174,-0.055c0.049,0 0.093,0.01 0.131,0.029c0.038,0.018 0.068,0.045 0.089,0.078c0.021,0.033 0.031,0.069 0.031,0.109l-0.094,-0c-0,-0.043 -0.014,-0.077 -0.041,-0.102c-0.027,-0.024 -0.066,-0.037 -0.116,-0.037c-0.046,0 -0.082,0.011 -0.108,0.031c-0.026,0.02 -0.039,0.049 -0.039,0.085c0,0.029 0.013,0.053 0.037,0.073c0.025,0.02 0.067,0.038 0.126,0.055c0.059,0.017 0.105,0.035 0.138,0.055c0.034,0.02 0.058,0.043 0.074,0.07c0.017,0.027 0.025,0.058 0.025,0.094c-0,0.058 -0.023,0.104 -0.068,0.139c-0.045,0.034 -0.105,0.052 -0.18,0.052c-0.049,-0 -0.094,-0.01 -0.137,-0.028c-0.042,-0.019 -0.075,-0.045 -0.098,-0.077c-0.022,-0.033 -0.034,-0.07 -0.034,-0.111l0.094,-0c0,0.043 0.016,0.077 0.048,0.102c0.032,0.025 0.074,0.037 0.127,0.037c0.05,0 0.088,-0.01 0.114,-0.03c0.026,-0.02 0.039,-0.048 0.039,-0.083c0,-0.035 -0.012,-0.061 -0.036,-0.08c-0.025,-0.02 -0.069,-0.038 -0.133,-0.057Z" style="fill:#595959;fill-rule:nonzero;"/></g><g transform="matrix(28,0,0,28,262.15,182.213)"><path d="M0.07,-0.047c0,-0.016 0.005,-0.029 0.014,-0.039c0.01,-0.011 0.023,-0.016 0.042,-0.016c0.019,-0 0.033,0.005 0.042,0.016c0.01,0.01 0.015,0.023 0.015,0.039c-0,0.015 -0.005,0.027 -0.015,0.037c-0.009,0.01 -0.023,0.015 -0.042,0.015c-0.019,0 -0.032,-0.005 -0.042,-0.015c-0.009,-0.01 -0.014,-0.022 -0.014,-0.037Z" style="fill:#595959;fill-rule:nonzero;"/></g><g transform="matrix(28,0,0,28,269.519,182.213)"><path d="M0.07,-0.047c0,-0.016 0.005,-0.029 0.014,-0.039c0.01,-0.011 0.023,-0.016 0.042,-0.016c0.019,-0 0.033,0.005 0.042,0.016c0.01,0.01 0.015,0.023 0.015,0.039c-0,0.015 -0.005,0.027 -0.015,0.037c-0.009,0.01 -0.023,0.015 -0.042,0.015c-0.019,0 -0.032,-0.005 -0.042,-0.015c-0.009,-0.01 -0.014,-0.022 -0.014,-0.037Z" style="fill:#595959;fill-rule:nonzero;"/></g></g><path d="M432.775,52.135l0.246,1.688l0.36,-1.521l2.531,-8.93l1.424,0l2.47,8.93l0.352,1.547l0.272,-1.723l1.986,-8.754l1.697,0l-3.103,12.797l-1.538,0l-2.637,-9.325l-0.202,-0.976l-0.202,0.976l-2.733,9.325l-1.539,0l-3.093,-12.797l1.687,0l2.022,8.763Z" style="fill:#595959;fill-rule:nonzero;"/><path d="M449.404,56.345c-1.289,0 -2.338,-0.423 -3.147,-1.27c-0.808,-0.847 -1.213,-1.979 -1.213,-3.397l0,-0.299c0,-0.943 0.18,-1.785 0.541,-2.527c0.36,-0.741 0.864,-1.321 1.511,-1.74c0.648,-0.419 1.35,-0.628 2.105,-0.628c1.237,-0 2.198,0.407 2.883,1.221c0.686,0.815 1.029,1.981 1.029,3.498l-0,0.677l-6.443,0c0.024,0.938 0.298,1.695 0.822,2.272c0.524,0.577 1.191,0.866 1.999,0.866c0.575,-0 1.061,-0.117 1.459,-0.352c0.399,-0.234 0.748,-0.545 1.046,-0.931l0.994,0.773c-0.797,1.225 -1.993,1.837 -3.586,1.837Zm-0.203,-8.525c-0.656,-0 -1.207,0.238 -1.652,0.716c-0.445,0.477 -0.721,1.147 -0.826,2.008l4.764,0l-0,-0.123c-0.047,-0.826 -0.27,-1.466 -0.668,-1.92c-0.399,-0.454 -0.938,-0.681 -1.618,-0.681Z" style="fill:#595959;fill-rule:nonzero;"/><path d="M461.119,46.659l0.052,1.196c0.727,-0.914 1.676,-1.371 2.848,-1.371c2.01,-0 3.024,1.133 3.041,3.401l0,6.284l-1.626,0l0,-6.293c-0.006,-0.685 -0.162,-1.192 -0.47,-1.52c-0.308,-0.328 -0.787,-0.492 -1.437,-0.492c-0.527,-0 -0.99,0.14 -1.389,0.421c-0.398,0.282 -0.709,0.651 -0.931,1.108l-0,6.776l-1.626,0l-0,-9.51l1.538,0Z" style="fill:#595959;fill-rule:nonzero;"/><path d="M473.459,56.345c-1.29,0 -2.338,-0.423 -3.147,-1.27c-0.809,-0.847 -1.213,-1.979 -1.213,-3.397l0,-0.299c0,-0.943 0.18,-1.785 0.541,-2.527c0.36,-0.741 0.864,-1.321 1.511,-1.74c0.648,-0.419 1.35,-0.628 2.105,-0.628c1.237,-0 2.198,0.407 2.883,1.221c0.686,0.815 1.029,1.981 1.029,3.498l-0,0.677l-6.443,0c0.024,0.938 0.298,1.695 0.822,2.272c0.524,0.577 1.191,0.866 1.999,0.866c0.575,-0 1.061,-0.117 1.459,-0.352c0.399,-0.234 0.747,-0.545 1.046,-0.931l0.993,0.773c-0.796,1.225 -1.992,1.837 -3.585,1.837Zm-0.203,-8.525c-0.656,-0 -1.207,0.238 -1.652,0.716c-0.445,0.477 -0.721,1.147 -0.826,2.008l4.764,0l-0,-0.123c-0.047,-0.826 -0.27,-1.466 -0.668,-1.92c-0.399,-0.454 -0.938,-0.681 -1.618,-0.681Z" style="fill:#595959;fill-rule:nonzero;"/><path d="M482.995,56.345c-1.289,0 -2.338,-0.423 -3.147,-1.27c-0.808,-0.847 -1.213,-1.979 -1.213,-3.397l0,-0.299c0,-0.943 0.18,-1.785 0.541,-2.527c0.36,-0.741 0.864,-1.321 1.512,-1.74c0.647,-0.419 1.349,-0.628 2.105,-0.628c1.236,-0 2.197,0.407 2.882,1.221c0.686,0.815 1.029,1.981 1.029,3.498l-0,0.677l-6.443,0c0.024,0.938 0.298,1.695 0.822,2.272c0.524,0.577 1.191,0.866 2,0.866c0.574,-0 1.06,-0.117 1.459,-0.352c0.398,-0.234 0.747,-0.545 1.045,-0.931l0.994,0.773c-0.797,1.225 -1.993,1.837 -3.586,1.837Zm-0.202,-8.525c-0.657,-0 -1.207,0.238 -1.653,0.716c-0.445,0.477 -0.721,1.147 -0.826,2.008l4.764,0l-0,-0.123c-0.047,-0.826 -0.27,-1.466 -0.668,-1.92c-0.399,-0.454 -0.938,-0.681 -1.617,-0.681Z" style="fill:#595959;fill-rule:nonzero;"/><path d="M488.189,51.335c0,-1.459 0.346,-2.632 1.037,-3.52c0.692,-0.887 1.597,-1.331 2.716,-1.331c1.113,-0 1.995,0.381 2.645,1.142l0,-4.957l1.626,0l0,13.5l-1.494,0l-0.079,-1.019c-0.65,0.797 -1.555,1.195 -2.716,1.195c-1.101,0 -1.999,-0.451 -2.693,-1.354c-0.695,-0.902 -1.042,-2.08 -1.042,-3.533l0,-0.123Zm1.626,0.185c-0,1.078 0.223,1.922 0.668,2.531c0.445,0.609 1.061,0.914 1.846,0.914c1.031,0 1.784,-0.463 2.258,-1.389l0,-4.368c-0.486,-0.896 -1.233,-1.344 -2.241,-1.344c-0.797,-0 -1.418,0.307 -1.863,0.922c-0.445,0.616 -0.668,1.527 -0.668,2.734Z" style="fill:#595959;fill-rule:nonzero;"/><path d="M505.09,56.169l-1.626,0l-0,-9.51l1.626,0l-0,9.51Zm-1.758,-12.032c-0,-0.264 0.08,-0.486 0.242,-0.668c0.161,-0.182 0.399,-0.272 0.716,-0.272c0.316,-0 0.557,0.09 0.721,0.272c0.164,0.182 0.246,0.404 0.246,0.668c-0,0.264 -0.082,0.483 -0.246,0.659c-0.164,0.176 -0.405,0.264 -0.721,0.264c-0.317,-0 -0.555,-0.088 -0.716,-0.264c-0.162,-0.176 -0.242,-0.395 -0.242,-0.659Z" style="fill:#595959;fill-rule:nonzero;"/><path d="M509.897,44.357l0,2.302l1.776,0l-0,1.257l-1.776,0l0,5.898c0,0.381 0.079,0.666 0.238,0.857c0.158,0.19 0.427,0.285 0.808,0.285c0.188,0 0.446,-0.035 0.774,-0.105l-0,1.318c-0.428,0.117 -0.844,0.176 -1.248,0.176c-0.727,0 -1.275,-0.22 -1.644,-0.659c-0.369,-0.44 -0.554,-1.064 -0.554,-1.872l0,-5.898l-1.731,0l-0,-1.257l1.731,0l0,-2.302l1.626,-0Z" style="fill:#595959;fill-rule:nonzero;"/><rect x="518.299" y="42.669" width="1.626" height="13.5" style="fill:#595959;fill-rule:nonzero;"/><path d="M524.293,56.169l-1.626,0l0,-9.51l1.626,0l0,9.51Zm-1.758,-12.032c0,-0.264 0.081,-0.486 0.242,-0.668c0.161,-0.182 0.4,-0.272 0.716,-0.272c0.317,-0 0.557,0.09 0.721,0.272c0.164,0.182 0.246,0.404 0.246,0.668c0,0.264 -0.082,0.483 -0.246,0.659c-0.164,0.176 -0.404,0.264 -0.721,0.264c-0.316,-0 -0.555,-0.088 -0.716,-0.264c-0.161,-0.176 -0.242,-0.395 -0.242,-0.659Z" style="fill:#595959;fill-rule:nonzero;"/><path d="M529.549,51.766l-1.02,1.063l0,3.34l-1.626,0l0,-13.5l1.626,0l0,8.165l0.871,-1.046l2.961,-3.129l1.978,0l-3.7,3.973l4.131,5.537l-1.908,0l-3.313,-4.403Z" style="fill:#595959;fill-rule:nonzero;"/><path d="M539.788,56.345c-1.289,0 -2.338,-0.423 -3.146,-1.27c-0.809,-0.847 -1.213,-1.979 -1.213,-3.397l-0,-0.299c-0,-0.943 0.18,-1.785 0.54,-2.527c0.361,-0.741 0.865,-1.321 1.512,-1.74c0.648,-0.419 1.349,-0.628 2.105,-0.628c1.236,-0 2.197,0.407 2.883,1.221c0.685,0.815 1.028,1.981 1.028,3.498l0,0.677l-6.442,0c0.023,0.938 0.297,1.695 0.822,2.272c0.524,0.577 1.19,0.866 1.999,0.866c0.574,-0 1.061,-0.117 1.459,-0.352c0.399,-0.234 0.747,-0.545 1.046,-0.931l0.993,0.773c-0.797,1.225 -1.992,1.837 -3.586,1.837Zm-0.202,-8.525c-0.656,-0 -1.207,0.238 -1.652,0.716c-0.446,0.477 -0.721,1.147 -0.826,2.008l4.763,0l0,-0.123c-0.047,-0.826 -0.269,-1.466 -0.668,-1.92c-0.398,-0.454 -0.937,-0.681 -1.617,-0.681Z" style="fill:#595959;fill-rule:nonzero;"/><path d="M552.171,44.357l0,2.302l1.776,0l-0,1.257l-1.776,0l0,5.898c0,0.381 0.079,0.666 0.238,0.857c0.158,0.19 0.427,0.285 0.808,0.285c0.188,0 0.445,-0.035 0.774,-0.105l-0,1.318c-0.428,0.117 -0.844,0.176 -1.248,0.176c-0.727,0 -1.275,-0.22 -1.644,-0.659c-0.369,-0.44 -0.554,-1.064 -0.554,-1.872l0,-5.898l-1.731,0l-0,-1.257l1.731,0l0,-2.302l1.626,-0Z" style="fill:#595959;fill-rule:nonzero;"/><path d="M557.471,47.811c0.721,-0.885 1.658,-1.327 2.813,-1.327c2.009,-0 3.023,1.133 3.041,3.401l-0,6.284l-1.626,0l-0,-6.293c-0.006,-0.685 -0.163,-1.192 -0.471,-1.52c-0.307,-0.328 -0.786,-0.492 -1.437,-0.492c-0.527,-0 -0.99,0.14 -1.388,0.421c-0.399,0.282 -0.709,0.651 -0.932,1.108l0,6.776l-1.626,0l0,-13.5l1.626,0l0,5.142Z" style="fill:#595959;fill-rule:nonzero;"/><path d="M567.526,56.169l-1.626,0l-0,-9.51l1.626,0l-0,9.51Zm-1.758,-12.032c-0,-0.264 0.081,-0.486 0.242,-0.668c0.161,-0.182 0.4,-0.272 0.716,-0.272c0.316,-0 0.557,0.09 0.721,0.272c0.164,0.182 0.246,0.404 0.246,0.668c-0,0.264 -0.082,0.483 -0.246,0.659c-0.164,0.176 -0.405,0.264 -0.721,0.264c-0.316,-0 -0.555,-0.088 -0.716,-0.264c-0.161,-0.176 -0.242,-0.395 -0.242,-0.659Z" style="fill:#595959;fill-rule:nonzero;"/><path d="M575.664,53.647c0,-0.44 -0.165,-0.781 -0.496,-1.024c-0.331,-0.243 -0.908,-0.453 -1.732,-0.629c-0.823,-0.175 -1.476,-0.386 -1.96,-0.632c-0.483,-0.246 -0.84,-0.539 -1.072,-0.879c-0.231,-0.34 -0.347,-0.744 -0.347,-1.213c0,-0.779 0.33,-1.439 0.989,-1.978c0.659,-0.539 1.501,-0.808 2.527,-0.808c1.078,-0 1.952,0.278 2.623,0.835c0.671,0.556 1.007,1.268 1.007,2.135l-1.635,0c-0,-0.445 -0.189,-0.829 -0.567,-1.151c-0.378,-0.322 -0.854,-0.483 -1.428,-0.483c-0.592,-0 -1.055,0.129 -1.389,0.386c-0.334,0.258 -0.501,0.595 -0.501,1.011c-0,0.393 0.155,0.689 0.466,0.888c0.31,0.199 0.871,0.389 1.683,0.571c0.811,0.182 1.469,0.398 1.973,0.65c0.504,0.252 0.878,0.556 1.121,0.91c0.243,0.355 0.364,0.787 0.364,1.297c0,0.849 -0.339,1.53 -1.019,2.043c-0.68,0.513 -1.562,0.769 -2.646,0.769c-0.761,0 -1.435,-0.135 -2.021,-0.404c-0.586,-0.27 -1.045,-0.646 -1.376,-1.13c-0.331,-0.483 -0.496,-1.006 -0.496,-1.569l1.626,0c0.029,0.545 0.247,0.978 0.655,1.297c0.407,0.319 0.944,0.479 1.612,0.479c0.616,-0 1.109,-0.125 1.481,-0.374c0.372,-0.249 0.558,-0.581 0.558,-0.997Z" style="fill:#595959;fill-rule:nonzero;"/><path d="M579.444,55.317c-0,-0.282 0.083,-0.516 0.25,-0.703c0.167,-0.188 0.418,-0.282 0.752,-0.282c0.334,0 0.587,0.094 0.76,0.282c0.173,0.187 0.259,0.421 0.259,0.703c0,0.269 -0.086,0.495 -0.259,0.676c-0.173,0.182 -0.426,0.273 -0.76,0.273c-0.334,-0 -0.585,-0.091 -0.752,-0.273c-0.167,-0.181 -0.25,-0.407 -0.25,-0.676Z" style="fill:#595959;fill-rule:nonzero;"/><path d="M584.181,55.317c0,-0.282 0.084,-0.516 0.251,-0.703c0.167,-0.188 0.417,-0.282 0.751,-0.282c0.334,0 0.587,0.094 0.76,0.282c0.173,0.187 0.26,0.421 0.26,0.703c-0,0.269 -0.087,0.495 -0.26,0.676c-0.173,0.182 -0.426,0.273 -0.76,0.273c-0.334,-0 -0.584,-0.091 -0.751,-0.273c-0.167,-0.181 -0.251,-0.407 -0.251,-0.676Z" style="fill:#595959;fill-rule:nonzero;"/><path d="M588.918,55.317c0,-0.282 0.084,-0.516 0.251,-0.703c0.167,-0.188 0.417,-0.282 0.751,-0.282c0.334,0 0.588,0.094 0.761,0.282c0.172,0.187 0.259,0.421 0.259,0.703c-0,0.269 -0.087,0.495 -0.259,0.676c-0.173,0.182 -0.427,0.273 -0.761,0.273c-0.334,-0 -0.584,-0.091 -0.751,-0.273c-0.167,-0.181 -0.251,-0.407 -0.251,-0.676Z" style="fill:#595959;fill-rule:nonzero;"/><g transform="matrix(1,0,0,1,587.974,82.515)"><g transform="matrix(14,0,0,14,347.352,59.1725)"><path d="M0.299,-0.354l0.186,-0.357l0.106,0l-0.245,0.446l0,0.265l-0.094,-0l0,-0.265l-0.245,-0.446l0.108,0l0.184,0.357Z" style="fill:#595959;fill-rule:nonzero;"/></g><g transform="matrix(14,0,0,14,355.316,59.1725)"><path d="M0.044,-0.269c0,-0.052 0.011,-0.098 0.031,-0.14c0.02,-0.041 0.049,-0.073 0.085,-0.095c0.036,-0.023 0.078,-0.034 0.124,-0.034c0.072,-0 0.13,0.025 0.175,0.075c0.044,0.049 0.066,0.116 0.066,0.198l0,0.007c0,0.051 -0.009,0.097 -0.029,0.138c-0.02,0.041 -0.048,0.073 -0.085,0.096c-0.036,0.022 -0.078,0.034 -0.126,0.034c-0.071,-0 -0.129,-0.025 -0.174,-0.075c-0.044,-0.05 -0.067,-0.116 -0.067,-0.198l0,-0.006Zm0.091,0.011c0,0.058 0.014,0.105 0.041,0.141c0.027,0.035 0.064,0.053 0.109,0.053c0.046,0 0.083,-0.018 0.11,-0.054c0.027,-0.036 0.04,-0.086 0.04,-0.151c0,-0.058 -0.014,-0.105 -0.041,-0.141c-0.028,-0.036 -0.064,-0.054 -0.11,-0.054c-0.044,0 -0.08,0.018 -0.108,0.053c-0.027,0.036 -0.041,0.087 -0.041,0.153Z" style="fill:#595959;fill-rule:nonzero;"/></g><g transform="matrix(14,0,0,14,363.3,59.1725)"><path d="M0.395,-0.052c-0.036,0.041 -0.087,0.062 -0.155,0.062c-0.057,-0 -0.099,-0.017 -0.129,-0.049c-0.029,-0.033 -0.044,-0.081 -0.045,-0.146l0,-0.343l0.091,-0l-0,0.341c-0,0.08 0.032,0.12 0.097,0.12c0.069,0 0.115,-0.026 0.138,-0.077l0,-0.384l0.09,-0l0,0.528l-0.086,-0l-0.001,-0.052Z" style="fill:#595959;fill-rule:nonzero;"/></g><g transform="matrix(14,0,0,14,374.484,59.1725)"><path d="M0.153,-0.528l0.003,0.058c0.038,-0.045 0.091,-0.068 0.157,-0.068c0.073,-0 0.124,0.028 0.15,0.085c0.018,-0.026 0.041,-0.046 0.069,-0.062c0.028,-0.015 0.061,-0.023 0.1,-0.023c0.116,-0 0.175,0.061 0.177,0.184l-0,0.354l-0.091,0l0,-0.349c0,-0.037 -0.008,-0.066 -0.026,-0.084c-0.017,-0.019 -0.046,-0.028 -0.087,-0.028c-0.033,-0 -0.061,0.01 -0.083,0.03c-0.022,0.02 -0.035,0.047 -0.039,0.08l0,0.351l-0.09,0l-0,-0.346c-0,-0.077 -0.038,-0.115 -0.113,-0.115c-0.059,-0 -0.1,0.025 -0.122,0.075l0,0.386l-0.09,0l-0,-0.528l0.085,-0Z" style="fill:#595959;fill-rule:nonzero;"/></g><g transform="matrix(14,0,0,14,386.754,59.1725)"><path d="M0.288,0.01c-0.072,-0 -0.13,-0.024 -0.175,-0.071c-0.045,-0.047 -0.068,-0.11 -0.068,-0.189l0,-0.016c0,-0.053 0.01,-0.099 0.03,-0.14c0.02,-0.042 0.048,-0.074 0.084,-0.097c0.036,-0.023 0.075,-0.035 0.117,-0.035c0.069,-0 0.122,0.023 0.161,0.068c0.038,0.045 0.057,0.11 0.057,0.194l-0,0.038l-0.358,-0c0.001,0.052 0.016,0.094 0.045,0.126c0.03,0.032 0.067,0.048 0.111,0.048c0.032,0 0.059,-0.006 0.082,-0.019c0.022,-0.014 0.041,-0.031 0.058,-0.052l0.055,0.043c-0.044,0.068 -0.111,0.102 -0.199,0.102Zm-0.012,-0.474c-0.036,0 -0.067,0.013 -0.091,0.04c-0.025,0.026 -0.04,0.064 -0.046,0.112l0.264,-0l0,-0.007c-0.002,-0.046 -0.015,-0.082 -0.037,-0.107c-0.022,-0.025 -0.052,-0.038 -0.09,-0.038Z" style="fill:#595959;fill-rule:nonzero;"/></g><g transform="matrix(14,0,0,14,394.171,59.1725)"><path d="M0.395,-0c-0.006,-0.01 -0.01,-0.029 -0.013,-0.056c-0.042,0.044 -0.092,0.066 -0.151,0.066c-0.052,-0 -0.094,-0.015 -0.128,-0.044c-0.033,-0.03 -0.05,-0.067 -0.05,-0.112c0,-0.055 0.021,-0.098 0.063,-0.129c0.042,-0.03 0.101,-0.045 0.176,-0.045l0.088,-0l0,-0.042c0,-0.031 -0.009,-0.057 -0.028,-0.075c-0.019,-0.019 -0.047,-0.028 -0.083,-0.028c-0.033,-0 -0.06,0.008 -0.081,0.024c-0.022,0.016 -0.033,0.036 -0.033,0.059l-0.091,0c-0,-0.026 0.009,-0.052 0.028,-0.076c0.019,-0.025 0.044,-0.044 0.076,-0.059c0.032,-0.014 0.068,-0.021 0.106,-0.021c0.061,-0 0.108,0.015 0.143,0.046c0.034,0.03 0.052,0.072 0.054,0.125l-0,0.243c-0,0.049 0.006,0.088 0.018,0.116l0,0.008l-0.094,0Zm-0.15,-0.069c0.028,0 0.055,-0.007 0.08,-0.022c0.026,-0.014 0.044,-0.034 0.055,-0.057l0,-0.108l-0.07,-0c-0.111,-0 -0.166,0.032 -0.166,0.097c-0,0.028 0.009,0.05 0.028,0.066c0.019,0.016 0.043,0.024 0.073,0.024Z" style="fill:#595959;fill-rule:nonzero;"/></g><g transform="matrix(14,0,0,14,401.787,59.1725)"><path d="M0.154,-0.528l0.003,0.066c0.04,-0.051 0.093,-0.076 0.158,-0.076c0.112,-0 0.168,0.063 0.169,0.189l-0,0.349l-0.09,-0l-0,-0.35c-0.001,-0.038 -0.009,-0.066 -0.027,-0.084c-0.017,-0.018 -0.043,-0.027 -0.079,-0.027c-0.03,-0 -0.055,0.007 -0.078,0.023c-0.022,0.016 -0.039,0.036 -0.051,0.062l-0,0.376l-0.091,0l0,-0.528l0.086,-0Z" style="fill:#595959;fill-rule:nonzero;"/></g><g transform="matrix(14,0,0,14,409.511,59.1725)"><path d="M0.07,-0.047c0,-0.016 0.005,-0.029 0.014,-0.039c0.01,-0.011 0.023,-0.016 0.042,-0.016c0.019,-0 0.033,0.005 0.042,0.016c0.01,0.01 0.015,0.023 0.015,0.039c-0,0.015 -0.005,0.027 -0.015,0.037c-0.009,0.01 -0.023,0.015 -0.042,0.015c-0.019,0 -0.032,-0.005 -0.042,-0.015c-0.009,-0.01 -0.014,-0.022 -0.014,-0.037Z" style="fill:#595959;fill-rule:nonzero;"/></g><g transform="matrix(14,0,0,14,413.196,59.1725)"><path d="M0.07,-0.047c0,-0.016 0.005,-0.029 0.014,-0.039c0.01,-0.011 0.023,-0.016 0.042,-0.016c0.019,-0 0.033,0.005 0.042,0.016c0.01,0.01 0.015,0.023 0.015,0.039c-0,0.015 -0.005,0.027 -0.015,0.037c-0.009,0.01 -0.023,0.015 -0.042,0.015c-0.019,0 -0.032,-0.005 -0.042,-0.015c-0.009,-0.01 -0.014,-0.022 -0.014,-0.037Z" style="fill:#595959;fill-rule:nonzero;"/></g><g transform="matrix(14,0,0,14,416.88,59.1725)"><path d="M0.07,-0.047c0,-0.016 0.005,-0.029 0.014,-0.039c0.01,-0.011 0.023,-0.016 0.042,-0.016c0.019,-0 0.033,0.005 0.042,0.016c0.01,0.01 0.015,0.023 0.015,0.039c-0,0.015 -0.005,0.027 -0.015,0.037c-0.009,0.01 -0.023,0.015 -0.042,0.015c-0.019,0 -0.032,-0.005 -0.042,-0.015c-0.009,-0.01 -0.014,-0.022 -0.014,-0.037Z" style="fill:#595959;fill-rule:nonzero;"/></g><g transform="matrix(14,0,0,14,343.056,73.1725)"><path d="M0.505,-0.303c-0,0.106 -0.018,0.184 -0.054,0.236c-0.036,0.051 -0.093,0.077 -0.17,0.077c-0.076,-0 -0.132,-0.025 -0.168,-0.076c-0.037,-0.05 -0.056,-0.125 -0.057,-0.225l0,-0.121c0,-0.104 0.018,-0.182 0.054,-0.233c0.036,-0.05 0.093,-0.076 0.17,-0.076c0.077,0 0.133,0.025 0.169,0.074c0.036,0.049 0.055,0.124 0.056,0.227l-0,0.117Zm-0.09,-0.124c-0,-0.076 -0.011,-0.132 -0.033,-0.167c-0.021,-0.035 -0.055,-0.052 -0.102,-0.052c-0.046,-0 -0.08,0.017 -0.101,0.052c-0.021,0.035 -0.032,0.088 -0.033,0.16l0,0.145c0,0.077 0.012,0.133 0.034,0.17c0.022,0.037 0.056,0.055 0.101,0.055c0.045,0 0.078,-0.017 0.1,-0.052c0.021,-0.034 0.033,-0.089 0.034,-0.163l-0,-0.148Z" style="fill:#595959;fill-rule:nonzero;"/></g><g transform="matrix(14,0,0,14,350.917,73.1725)"><path d="M0.356,-0l-0.091,-0l0,-0.602l-0.182,0.067l0,-0.082l0.259,-0.097l0.014,-0l-0,0.714Z" style="fill:#595959;fill-rule:nonzero;"/></g><g transform="matrix(14,0,0,14,358.778,73.1725)"><path d="M0.505,-0.303c-0,0.106 -0.018,0.184 -0.054,0.236c-0.036,0.051 -0.093,0.077 -0.17,0.077c-0.076,-0 -0.132,-0.025 -0.168,-0.076c-0.037,-0.05 -0.056,-0.125 -0.057,-0.225l0,-0.121c0,-0.104 0.018,-0.182 0.054,-0.233c0.036,-0.05 0.093,-0.076 0.17,-0.076c0.077,0 0.133,0.025 0.169,0.074c0.036,0.049 0.055,0.124 0.056,0.227l-0,0.117Zm-0.09,-0.124c-0,-0.076 -0.011,-0.132 -0.033,-0.167c-0.021,-0.035 -0.055,-0.052 -0.102,-0.052c-0.046,-0 -0.08,0.017 -0.101,0.052c-0.021,0.035 -0.032,0.088 -0.033,0.16l0,0.145c0,0.077 0.012,0.133 0.034,0.17c0.022,0.037 0.056,0.055 0.101,0.055c0.045,0 0.078,-0.017 0.1,-0.052c0.021,-0.034 0.033,-0.089 0.034,-0.163l-0,-0.148Z" style="fill:#595959;fill-rule:nonzero;"/></g><g transform="matrix(14,0,0,14,366.64,73.1725)"><path d="M0.356,-0l-0.091,-0l0,-0.602l-0.182,0.067l0,-0.082l0.259,-0.097l0.014,-0l-0,0.714Z" style="fill:#595959;fill-rule:nonzero;"/></g><g transform="matrix(14,0,0,14,374.501,73.1725)"><path d="M0.356,-0l-0.091,-0l0,-0.602l-0.182,0.067l0,-0.082l0.259,-0.097l0.014,-0l-0,0.714Z" style="fill:#595959;fill-rule:nonzero;"/></g><g transform="matrix(14,0,0,14,382.362,73.1725)"><path d="M0.505,-0.303c-0,0.106 -0.018,0.184 -0.054,0.236c-0.036,0.051 -0.093,0.077 -0.17,0.077c-0.076,-0 -0.132,-0.025 -0.168,-0.076c-0.037,-0.05 -0.056,-0.125 -0.057,-0.225l0,-0.121c0,-0.104 0.018,-0.182 0.054,-0.233c0.036,-0.05 0.093,-0.076 0.17,-0.076c0.077,0 0.133,0.025 0.169,0.074c0.036,0.049 0.055,0.124 0.056,0.227l-0,0.117Zm-0.09,-0.124c-0,-0.076 -0.011,-0.132 -0.033,-0.167c-0.021,-0.035 -0.055,-0.052 -0.102,-0.052c-0.046,-0 -0.08,0.017 -0.101,0.052c-0.021,0.035 -0.032,0.088 -0.033,0.16l0,0.145c0,0.077 0.012,0.133 0.034,0.17c0.022,0.037 0.056,0.055 0.101,0.055c0.045,0 0.078,-0.017 0.1,-0.052c0.021,-0.034 0.033,-0.089 0.034,-0.163l-0,-0.148Z" style="fill:#595959;fill-rule:nonzero;"/></g><g transform="matrix(14,0,0,14,390.224,73.1725)"><path d="M0.505,-0.303c-0,0.106 -0.018,0.184 -0.054,0.236c-0.036,0.051 -0.093,0.077 -0.17,0.077c-0.076,-0 -0.132,-0.025 -0.168,-0.076c-0.037,-0.05 -0.056,-0.125 -0.057,-0.225l0,-0.121c0,-0.104 0.018,-0.182 0.054,-0.233c0.036,-0.05 0.093,-0.076 0.17,-0.076c0.077,0 0.133,0.025 0.169,0.074c0.036,0.049 0.055,0.124 0.056,0.227l-0,0.117Zm-0.09,-0.124c-0,-0.076 -0.011,-0.132 -0.033,-0.167c-0.021,-0.035 -0.055,-0.052 -0.102,-0.052c-0.046,-0 -0.08,0.017 -0.101,0.052c-0.021,0.035 -0.032,0.088 -0.033,0.16l0,0.145c0,0.077 0.012,0.133 0.034,0.17c0.022,0.037 0.056,0.055 0.101,0.055c0.045,0 0.078,-0.017 0.1,-0.052c0.021,-0.034 0.033,-0.089 0.034,-0.163l-0,-0.148Z" style="fill:#595959;fill-rule:nonzero;"/></g><g transform="matrix(14,0,0,14,398.085,73.1725)"><path d="M0.505,-0.303c-0,0.106 -0.018,0.184 -0.054,0.236c-0.036,0.051 -0.093,0.077 -0.17,0.077c-0.076,-0 -0.132,-0.025 -0.168,-0.076c-0.037,-0.05 -0.056,-0.125 -0.057,-0.225l0,-0.121c0,-0.104 0.018,-0.182 0.054,-0.233c0.036,-0.05 0.093,-0.076 0.17,-0.076c0.077,0 0.133,0.025 0.169,0.074c0.036,0.049 0.055,0.124 0.056,0.227l-0,0.117Zm-0.09,-0.124c-0,-0.076 -0.011,-0.132 -0.033,-0.167c-0.021,-0.035 -0.055,-0.052 -0.102,-0.052c-0.046,-0 -0.08,0.017 -0.101,0.052c-0.021,0.035 -0.032,0.088 -0.033,0.16l0,0.145c0,0.077 0.012,0.133 0.034,0.17c0.022,0.037 0.056,0.055 0.101,0.055c0.045,0 0.078,-0.017 0.1,-0.052c0.021,-0.034 0.033,-0.089 0.034,-0.163l-0,-0.148Z" style="fill:#595959;fill-rule:nonzero;"/></g><g transform="matrix(14,0,0,14,405.946,73.1725)"><path d="M0.356,-0l-0.091,-0l0,-0.602l-0.182,0.067l0,-0.082l0.259,-0.097l0.014,-0l-0,0.714Z" style="fill:#595959;fill-rule:nonzero;"/></g><g transform="matrix(14,0,0,14,413.808,73.1725)"><path d="M0.07,-0.047c0,-0.016 0.005,-0.029 0.014,-0.039c0.01,-0.011 0.023,-0.016 0.042,-0.016c0.019,-0 0.033,0.005 0.042,0.016c0.01,0.01 0.015,0.023 0.015,0.039c-0,0.015 -0.005,0.027 -0.015,0.037c-0.009,0.01 -0.023,0.015 -0.042,0.015c-0.019,0 -0.032,-0.005 -0.042,-0.015c-0.009,-0.01 -0.014,-0.022 -0.014,-0.037Z" style="fill:#595959;fill-rule:nonzero;"/></g><g transform="matrix(14,0,0,14,417.492,73.1725)"><path d="M0.07,-0.047c0,-0.016 0.005,-0.029 0.014,-0.039c0.01,-0.011 0.023,-0.016 0.042,-0.016c0.019,-0 0.033,0.005 0.042,0.016c0.01,0.01 0.015,0.023 0.015,0.039c-0,0.015 -0.005,0.027 -0.015,0.037c-0.009,0.01 -0.023,0.015 -0.042,0.015c-0.019,0 -0.032,-0.005 -0.042,-0.015c-0.009,-0.01 -0.014,-0.022 -0.014,-0.037Z" style="fill:#595959;fill-rule:nonzero;"/></g><g transform="matrix(14,0,0,14,421.177,73.1725)"><path d="M0.07,-0.047c0,-0.016 0.005,-0.029 0.014,-0.039c0.01,-0.011 0.023,-0.016 0.042,-0.016c0.019,-0 0.033,0.005 0.042,0.016c0.01,0.01 0.015,0.023 0.015,0.039c-0,0.015 -0.005,0.027 -0.015,0.037c-0.009,0.01 -0.023,0.015 -0.042,0.015c-0.019,0 -0.032,-0.005 -0.042,-0.015c-0.009,-0.01 -0.014,-0.022 -0.014,-0.037Z" style="fill:#595959;fill-rule:nonzero;"/></g></g><g transform="matrix(1,0,0,1,449.496,48.3269)"><g transform="matrix(20,0,0,20,273.264,53.2088)"><path d="M0.083,-0l-0,-0.711l0.232,0c0.077,0 0.135,0.016 0.174,0.048c0.039,0.032 0.058,0.079 0.058,0.142c0,0.033 -0.009,0.062 -0.028,0.088c-0.019,0.025 -0.045,0.045 -0.077,0.059c0.038,0.011 0.069,0.031 0.091,0.061c0.022,0.03 0.033,0.066 0.033,0.108c0,0.064 -0.02,0.114 -0.062,0.15c-0.041,0.037 -0.099,0.055 -0.175,0.055l-0.246,-0Zm0.093,-0.333l0,0.256l0.155,0c0.044,0 0.078,-0.011 0.103,-0.034c0.026,-0.022 0.038,-0.053 0.038,-0.093c0,-0.086 -0.046,-0.129 -0.139,-0.129l-0.157,0Zm0,-0.075l0.142,0c0.041,0 0.074,-0.01 0.098,-0.03c0.025,-0.021 0.037,-0.049 0.037,-0.084c0,-0.039 -0.011,-0.067 -0.034,-0.085c-0.023,-0.018 -0.058,-0.027 -0.104,-0.027l-0.139,0l0,0.226Z" style="fill:#595959;fill-rule:nonzero;"/></g><g transform="matrix(20,0,0,20,285.715,53.2088)"><path d="M0.395,-0.052c-0.036,0.041 -0.087,0.062 -0.155,0.062c-0.057,-0 -0.099,-0.017 -0.129,-0.049c-0.029,-0.033 -0.044,-0.081 -0.045,-0.146l0,-0.343l0.091,-0l-0,0.341c-0,0.08 0.032,0.12 0.097,0.12c0.069,0 0.115,-0.026 0.138,-0.077l0,-0.384l0.09,-0l0,0.528l-0.086,-0l-0.001,-0.052Z" style="fill:#595959;fill-rule:nonzero;"/></g><g transform="matrix(20,0,0,20,296.74,53.2088)"><path d="M0.191,-0.656l-0,0.128l0.099,-0l-0,0.07l-0.099,-0l-0,0.327c-0,0.021 0.004,0.037 0.013,0.048c0.009,0.01 0.024,0.016 0.045,0.016c0.01,-0 0.025,-0.002 0.043,-0.006l-0,0.073c-0.024,0.007 -0.047,0.01 -0.069,0.01c-0.041,-0 -0.071,-0.012 -0.092,-0.037c-0.02,-0.024 -0.03,-0.059 -0.03,-0.104l-0,-0.327l-0.097,-0l0,-0.07l0.097,-0l-0,-0.128l0.09,-0Z" style="fill:#595959;fill-rule:nonzero;"/></g><g transform="matrix(20,0,0,20,308.144,53.2088)"><path d="M0.574,-0.634l-0.229,0l0,0.634l-0.093,-0l-0,-0.634l-0.228,0l-0,-0.077l0.55,0l-0,0.077Z" style="fill:#595959;fill-rule:nonzero;"/></g><g transform="matrix(20,0,0,20,320.077,53.2088)"><path d="M0.629,-0l-0.094,-0l-0,-0.329l-0.359,0l0,0.329l-0.093,-0l-0,-0.711l0.093,0l0,0.306l0.359,-0l-0,-0.306l0.094,0l-0,0.711Z" style="fill:#595959;fill-rule:nonzero;"/></g><g transform="matrix(20,0,0,20,334.511,53.2088)"><path d="M0.475,-0.186l-0.298,0l-0.067,0.186l-0.096,-0l0.271,-0.711l0.082,0l0.272,0.711l-0.096,-0l-0.068,-0.186Zm-0.269,-0.077l0.241,0l-0.121,-0.332l-0.12,0.332Z" style="fill:#595959;fill-rule:nonzero;"/></g><g transform="matrix(20,0,0,20,346.298,53.2088)"><path d="M0.574,-0.634l-0.229,0l0,0.634l-0.093,-0l-0,-0.634l-0.228,0l-0,-0.077l0.55,0l-0,0.077Z" style="fill:#595959;fill-rule:nonzero;"/></g><g transform="matrix(20,0,0,20,275.146,78.5388)"><path d="M0.167,-0l-0.091,-0l0,-0.528l0.091,-0l-0,0.528Zm-0.098,-0.668c-0,-0.015 0.004,-0.027 0.013,-0.038c0.009,-0.01 0.022,-0.015 0.04,-0.015c0.018,0 0.031,0.005 0.04,0.015c0.009,0.011 0.014,0.023 0.014,0.038c-0,0.014 -0.005,0.026 -0.014,0.036c-0.009,0.01 -0.022,0.015 -0.04,0.015c-0.018,-0 -0.031,-0.005 -0.04,-0.015c-0.009,-0.01 -0.013,-0.022 -0.013,-0.036Z" style="fill:#595959;fill-rule:nonzero;"/></g><g transform="matrix(20,0,0,20,280,78.5388)"><path d="M0.376,-0.14c-0,-0.025 -0.009,-0.044 -0.028,-0.057c-0.018,-0.014 -0.05,-0.025 -0.096,-0.035c-0.046,-0.01 -0.082,-0.021 -0.109,-0.035c-0.027,-0.014 -0.046,-0.03 -0.059,-0.049c-0.013,-0.019 -0.02,-0.041 -0.02,-0.067c0,-0.044 0.019,-0.08 0.055,-0.11c0.037,-0.03 0.084,-0.045 0.141,-0.045c0.06,-0 0.108,0.015 0.146,0.046c0.037,0.031 0.055,0.071 0.055,0.119l-0.09,-0c-0,-0.025 -0.011,-0.046 -0.032,-0.064c-0.021,-0.018 -0.047,-0.027 -0.079,-0.027c-0.033,0 -0.059,0.007 -0.077,0.022c-0.019,0.014 -0.028,0.033 -0.028,0.056c-0,0.022 0.008,0.038 0.026,0.049c0.017,0.011 0.048,0.022 0.093,0.032c0.045,0.01 0.082,0.022 0.11,0.036c0.028,0.014 0.049,0.031 0.062,0.05c0.014,0.02 0.02,0.044 0.02,0.073c0,0.047 -0.019,0.085 -0.056,0.113c-0.038,0.029 -0.087,0.043 -0.147,0.043c-0.043,-0 -0.08,-0.008 -0.113,-0.023c-0.032,-0.015 -0.058,-0.036 -0.076,-0.062c-0.018,-0.027 -0.028,-0.056 -0.028,-0.088l0.091,0c0.001,0.031 0.013,0.055 0.036,0.072c0.023,0.018 0.053,0.027 0.09,0.027c0.034,0 0.061,-0.007 0.082,-0.021c0.021,-0.014 0.031,-0.032 0.031,-0.055Z" style="fill:#595959;fill-rule:nonzero;"/></g><g transform="matrix(20,0,0,20,295.481,78.5388)"><path d="M0.288,0.01c-0.072,-0 -0.13,-0.024 -0.175,-0.071c-0.045,-0.047 -0.068,-0.11 -0.068,-0.189l0,-0.016c0,-0.053 0.01,-0.099 0.03,-0.14c0.02,-0.042 0.048,-0.074 0.084,-0.097c0.036,-0.023 0.075,-0.035 0.117,-0.035c0.069,-0 0.122,0.023 0.161,0.068c0.038,0.045 0.057,0.11 0.057,0.194l-0,0.038l-0.358,-0c0.001,0.052 0.016,0.094 0.045,0.126c0.03,0.032 0.067,0.048 0.111,0.048c0.032,0 0.059,-0.006 0.082,-0.019c0.022,-0.014 0.041,-0.031 0.058,-0.052l0.055,0.043c-0.044,0.068 -0.111,0.102 -0.199,0.102Zm-0.012,-0.474c-0.036,0 -0.067,0.013 -0.091,0.04c-0.025,0.026 -0.04,0.064 -0.046,0.112l0.264,-0l0,-0.007c-0.002,-0.046 -0.015,-0.082 -0.037,-0.107c-0.022,-0.025 -0.052,-0.038 -0.09,-0.038Z" style="fill:#595959;fill-rule:nonzero;"/></g><g transform="matrix(20,0,0,20,306.077,78.5388)"><path d="M0.246,-0.335l0.117,-0.193l0.105,-0l-0.173,0.261l0.179,0.267l-0.105,-0l-0.122,-0.198l-0.122,0.198l-0.105,-0l0.178,-0.267l-0.173,-0.261l0.105,-0l0.116,0.193Z" style="fill:#595959;fill-rule:nonzero;"/></g><g transform="matrix(20,0,0,20,315.989,78.5388)"><path d="M0.395,-0c-0.006,-0.01 -0.01,-0.029 -0.013,-0.056c-0.042,0.044 -0.092,0.066 -0.151,0.066c-0.052,-0 -0.094,-0.015 -0.128,-0.044c-0.033,-0.03 -0.05,-0.067 -0.05,-0.112c0,-0.055 0.021,-0.098 0.063,-0.129c0.042,-0.03 0.101,-0.045 0.176,-0.045l0.088,-0l0,-0.042c0,-0.031 -0.009,-0.057 -0.028,-0.075c-0.019,-0.019 -0.047,-0.028 -0.083,-0.028c-0.033,-0 -0.06,0.008 -0.081,0.024c-0.022,0.016 -0.033,0.036 -0.033,0.059l-0.091,0c-0,-0.026 0.009,-0.052 0.028,-0.076c0.019,-0.025 0.044,-0.044 0.076,-0.059c0.032,-0.014 0.068,-0.021 0.106,-0.021c0.061,-0 0.108,0.015 0.143,0.046c0.034,0.03 0.052,0.072 0.054,0.125l-0,0.243c-0,0.049 0.006,0.088 0.018,0.116l0,0.008l-0.094,0Zm-0.15,-0.069c0.028,0 0.055,-0.007 0.08,-0.022c0.026,-0.014 0.044,-0.034 0.055,-0.057l0,-0.108l-0.07,-0c-0.111,-0 -0.166,0.032 -0.166,0.097c-0,0.028 0.009,0.05 0.028,0.066c0.019,0.016 0.043,0.024 0.073,0.024Z" style="fill:#595959;fill-rule:nonzero;"/></g><g transform="matrix(20,0,0,20,326.868,78.5388)"><path d="M0.28,-0.064c0.032,0 0.061,-0.01 0.085,-0.029c0.024,-0.02 0.037,-0.044 0.04,-0.074l0.085,0c-0.001,0.031 -0.012,0.06 -0.031,0.087c-0.019,0.027 -0.045,0.049 -0.077,0.065c-0.032,0.017 -0.066,0.025 -0.102,0.025c-0.072,-0 -0.129,-0.024 -0.171,-0.072c-0.043,-0.048 -0.064,-0.114 -0.064,-0.197l-0,-0.015c-0,-0.052 0.009,-0.098 0.028,-0.138c0.019,-0.04 0.046,-0.071 0.082,-0.093c0.035,-0.022 0.077,-0.033 0.125,-0.033c0.059,-0 0.108,0.018 0.147,0.053c0.04,0.036 0.061,0.082 0.063,0.138l-0.085,0c-0.003,-0.034 -0.016,-0.062 -0.039,-0.084c-0.023,-0.022 -0.052,-0.033 -0.086,-0.033c-0.046,0 -0.082,0.017 -0.107,0.05c-0.025,0.033 -0.038,0.081 -0.038,0.143l0,0.017c0,0.061 0.013,0.108 0.038,0.141c0.025,0.033 0.061,0.049 0.107,0.049Z" style="fill:#595959;fill-rule:nonzero;"/></g><g transform="matrix(20,0,0,20,337.337,78.5388)"><path d="M0.191,-0.656l-0,0.128l0.099,-0l-0,0.07l-0.099,-0l-0,0.327c-0,0.021 0.004,0.037 0.013,0.048c0.009,0.01 0.024,0.016 0.045,0.016c0.01,-0 0.025,-0.002 0.043,-0.006l-0,0.073c-0.024,0.007 -0.047,0.01 -0.069,0.01c-0.041,-0 -0.071,-0.012 -0.092,-0.037c-0.02,-0.024 -0.03,-0.059 -0.03,-0.104l-0,-0.327l-0.097,-0l0,-0.07l0.097,-0l-0,-0.128l0.09,-0Z" style="fill:#595959;fill-rule:nonzero;"/></g><g transform="matrix(20,0,0,20,343.87,78.5388)"><rect x="0.076" y="-0.75" width="0.09" height="0.75" style="fill:#595959;fill-rule:nonzero;"/></g><g transform="matrix(20,0,0,20,348.723,78.5388)"><path d="M0.241,-0.132l0.123,-0.396l0.097,-0l-0.212,0.61c-0.033,0.087 -0.086,0.131 -0.157,0.131l-0.017,-0.001l-0.034,-0.006l0,-0.074l0.024,0.002c0.031,0 0.055,-0.006 0.072,-0.018c0.017,-0.013 0.031,-0.035 0.042,-0.068l0.02,-0.054l-0.188,-0.522l0.098,-0l0.132,0.396Z" style="fill:#595959;fill-rule:nonzero;"/></g><g transform="matrix(20,0,0,20,267.378,103.869)"><path d="M0.536,-0.125l0.102,-0.403l0.09,-0l-0.154,0.528l-0.073,-0l-0.128,-0.4l-0.125,0.4l-0.074,-0l-0.153,-0.528l0.09,-0l0.104,0.395l0.123,-0.395l0.073,-0l0.125,0.403Z" style="fill:#595959;fill-rule:nonzero;"/></g><g transform="matrix(20,0,0,20,282.408,103.869)"><path d="M0.159,-0.464c0.04,-0.05 0.092,-0.074 0.156,-0.074c0.112,-0 0.168,0.063 0.169,0.189l-0,0.349l-0.09,-0l-0,-0.35c-0.001,-0.038 -0.009,-0.066 -0.027,-0.084c-0.017,-0.018 -0.043,-0.027 -0.079,-0.027c-0.03,-0 -0.055,0.007 -0.078,0.023c-0.022,0.016 -0.039,0.036 -0.051,0.062l-0,0.376l-0.091,0l0,-0.75l0.091,0l-0,0.286Z" style="fill:#595959;fill-rule:nonzero;"/></g><g transform="matrix(20,0,0,20,293.423,103.869)"><path d="M0.395,-0c-0.006,-0.01 -0.01,-0.029 -0.013,-0.056c-0.042,0.044 -0.092,0.066 -0.151,0.066c-0.052,-0 -0.094,-0.015 -0.128,-0.044c-0.033,-0.03 -0.05,-0.067 -0.05,-0.112c0,-0.055 0.021,-0.098 0.063,-0.129c0.042,-0.03 0.101,-0.045 0.176,-0.045l0.088,-0l0,-0.042c0,-0.031 -0.009,-0.057 -0.028,-0.075c-0.019,-0.019 -0.047,-0.028 -0.083,-0.028c-0.033,-0 -0.06,0.008 -0.081,0.024c-0.022,0.016 -0.033,0.036 -0.033,0.059l-0.091,0c-0,-0.026 0.009,-0.052 0.028,-0.076c0.019,-0.025 0.044,-0.044 0.076,-0.059c0.032,-0.014 0.068,-0.021 0.106,-0.021c0.061,-0 0.108,0.015 0.143,0.046c0.034,0.03 0.052,0.072 0.054,0.125l-0,0.243c-0,0.049 0.006,0.088 0.018,0.116l0,0.008l-0.094,0Zm-0.15,-0.069c0.028,0 0.055,-0.007 0.08,-0.022c0.026,-0.014 0.044,-0.034 0.055,-0.057l0,-0.108l-0.07,-0c-0.111,-0 -0.166,0.032 -0.166,0.097c-0,0.028 0.009,0.05 0.028,0.066c0.019,0.016 0.043,0.024 0.073,0.024Z" style="fill:#595959;fill-rule:nonzero;"/></g><g transform="matrix(20,0,0,20,304.302,103.869)"><path d="M0.191,-0.656l-0,0.128l0.099,-0l-0,0.07l-0.099,-0l-0,0.327c-0,0.021 0.004,0.037 0.013,0.048c0.009,0.01 0.024,0.016 0.045,0.016c0.01,-0 0.025,-0.002 0.043,-0.006l-0,0.073c-0.024,0.007 -0.047,0.01 -0.069,0.01c-0.041,-0 -0.071,-0.012 -0.092,-0.037c-0.02,-0.024 -0.03,-0.059 -0.03,-0.104l-0,-0.327l-0.097,-0l0,-0.07l0.097,-0l-0,-0.128l0.09,-0Z" style="fill:#595959;fill-rule:nonzero;"/></g><g transform="matrix(20,0,0,20,315.787,103.869)"><rect x="0.089" y="-0.711" width="0.094" height="0.711" style="fill:#595959;fill-rule:nonzero;"/></g><g transform="matrix(20,0,0,20,326.177,103.869)"><path d="M0.046,-0.269c0,-0.081 0.02,-0.146 0.058,-0.195c0.038,-0.049 0.089,-0.074 0.151,-0.074c0.062,-0 0.111,0.021 0.147,0.063l-0,-0.275l0.09,0l0,0.75l-0.083,-0l-0.004,-0.057c-0.036,0.045 -0.087,0.067 -0.151,0.067c-0.061,-0 -0.111,-0.025 -0.15,-0.075c-0.038,-0.051 -0.058,-0.116 -0.058,-0.197l0,-0.007Zm0.091,0.011c-0,0.06 0.012,0.106 0.037,0.14c0.025,0.034 0.059,0.051 0.102,0.051c0.058,0 0.099,-0.026 0.126,-0.077l-0,-0.243c-0.027,-0.05 -0.069,-0.074 -0.125,-0.074c-0.044,-0 -0.078,0.017 -0.103,0.051c-0.025,0.034 -0.037,0.085 -0.037,0.152Z" style="fill:#595959;fill-rule:nonzero;"/></g><g transform="matrix(20,0,0,20,337.457,103.869)"><path d="M0.167,-0l-0.091,-0l0,-0.528l0.091,-0l-0,0.528Zm-0.098,-0.668c-0,-0.015 0.004,-0.027 0.013,-0.038c0.009,-0.01 0.022,-0.015 0.04,-0.015c0.018,0 0.031,0.005 0.04,0.015c0.009,0.011 0.014,0.023 0.014,0.038c-0,0.014 -0.005,0.026 -0.014,0.036c-0.009,0.01 -0.022,0.015 -0.04,0.015c-0.018,-0 -0.031,-0.005 -0.04,-0.015c-0.009,-0.01 -0.013,-0.022 -0.013,-0.036Z" style="fill:#595959;fill-rule:nonzero;"/></g><g transform="matrix(20,0,0,20,342.31,103.869)"><path d="M0.046,-0.269c0,-0.081 0.02,-0.146 0.058,-0.195c0.038,-0.049 0.089,-0.074 0.151,-0.074c0.062,-0 0.111,0.021 0.147,0.063l-0,-0.275l0.09,0l0,0.75l-0.083,-0l-0.004,-0.057c-0.036,0.045 -0.087,0.067 -0.151,0.067c-0.061,-0 -0.111,-0.025 -0.15,-0.075c-0.038,-0.051 -0.058,-0.116 -0.058,-0.197l0,-0.007Zm0.091,0.011c-0,0.06 0.012,0.106 0.037,0.14c0.025,0.034 0.059,0.051 0.102,0.051c0.058,0 0.099,-0.026 0.126,-0.077l-0,-0.243c-0.027,-0.05 -0.069,-0.074 -0.125,-0.074c-0.044,-0 -0.078,0.017 -0.103,0.051c-0.025,0.034 -0.037,0.085 -0.037,0.152Z" style="fill:#595959;fill-rule:nonzero;"/></g><g transform="matrix(20,0,0,20,353.589,103.869)"><path d="M0.07,-0.047c0,-0.016 0.005,-0.029 0.014,-0.039c0.01,-0.011 0.023,-0.016 0.042,-0.016c0.019,-0 0.033,0.005 0.042,0.016c0.01,0.01 0.015,0.023 0.015,0.039c-0,0.015 -0.005,0.027 -0.015,0.037c-0.009,0.01 -0.023,0.015 -0.042,0.015c-0.019,0 -0.032,-0.005 -0.042,-0.015c-0.009,-0.01 -0.014,-0.022 -0.014,-0.037Z" style="fill:#595959;fill-rule:nonzero;"/></g><g transform="matrix(20,0,0,20,358.853,103.869)"><path d="M0.07,-0.047c0,-0.016 0.005,-0.029 0.014,-0.039c0.01,-0.011 0.023,-0.016 0.042,-0.016c0.019,-0 0.033,0.005 0.042,0.016c0.01,0.01 0.015,0.023 0.015,0.039c-0,0.015 -0.005,0.027 -0.015,0.037c-0.009,0.01 -0.023,0.015 -0.042,0.015c-0.019,0 -0.032,-0.005 -0.042,-0.015c-0.009,-0.01 -0.014,-0.022 -0.014,-0.037Z" style="fill:#595959;fill-rule:nonzero;"/></g></g><g transform="matrix(1,0,0,1,31.8552,55.4068)"><g transform="matrix(22,0,0,22,77.1343,68.4226)"><path d="M0.629,-0l-0.094,-0l-0.358,-0.548l-0,0.548l-0.094,-0l-0,-0.711l0.094,0l0.359,0.55l-0,-0.55l0.093,0l-0,0.711Z" style="fill:#595959;fill-rule:nonzero;"/></g><g transform="matrix(22,0,0,22,92.8179,68.4226)"><path d="M0.044,-0.269c0,-0.052 0.011,-0.098 0.031,-0.14c0.02,-0.041 0.049,-0.073 0.085,-0.095c0.036,-0.023 0.078,-0.034 0.124,-0.034c0.072,-0 0.13,0.025 0.175,0.075c0.044,0.049 0.066,0.116 0.066,0.198l0,0.007c0,0.051 -0.009,0.097 -0.029,0.138c-0.02,0.041 -0.048,0.073 -0.085,0.096c-0.036,0.022 -0.078,0.034 -0.126,0.034c-0.071,-0 -0.129,-0.025 -0.174,-0.075c-0.044,-0.05 -0.067,-0.116 -0.067,-0.198l0,-0.006Zm0.091,0.011c0,0.058 0.014,0.105 0.041,0.141c0.027,0.035 0.064,0.053 0.109,0.053c0.046,0 0.083,-0.018 0.11,-0.054c0.027,-0.036 0.04,-0.086 0.04,-0.151c0,-0.058 -0.014,-0.105 -0.041,-0.141c-0.028,-0.036 -0.064,-0.054 -0.11,-0.054c-0.044,0 -0.08,0.018 -0.108,0.053c-0.027,0.036 -0.041,0.087 -0.041,0.153Z" style="fill:#595959;fill-rule:nonzero;"/></g><g transform="matrix(22,0,0,22,105.365,68.4226)"><path d="M0.191,-0.656l-0,0.128l0.099,-0l-0,0.07l-0.099,-0l-0,0.327c-0,0.021 0.004,0.037 0.013,0.048c0.009,0.01 0.024,0.016 0.045,0.016c0.01,-0 0.025,-0.002 0.043,-0.006l-0,0.073c-0.024,0.007 -0.047,0.01 -0.069,0.01c-0.041,-0 -0.071,-0.012 -0.092,-0.037c-0.02,-0.024 -0.03,-0.059 -0.03,-0.104l-0,-0.327l-0.097,-0l0,-0.07l0.097,-0l-0,-0.128l0.09,-0Z" style="fill:#595959;fill-rule:nonzero;"/></g><g transform="matrix(22,0,0,22,117.998,68.4226)"><rect x="0.076" y="-0.75" width="0.09" height="0.75" style="fill:#595959;fill-rule:nonzero;"/></g><g transform="matrix(22,0,0,22,123.336,68.4226)"><path d="M0.167,-0l-0.091,-0l0,-0.528l0.091,-0l-0,0.528Zm-0.098,-0.668c-0,-0.015 0.004,-0.027 0.013,-0.038c0.009,-0.01 0.022,-0.015 0.04,-0.015c0.018,0 0.031,0.005 0.04,0.015c0.009,0.011 0.014,0.023 0.014,0.038c-0,0.014 -0.005,0.026 -0.014,0.036c-0.009,0.01 -0.022,0.015 -0.04,0.015c-0.018,-0 -0.031,-0.005 -0.04,-0.015c-0.009,-0.01 -0.013,-0.022 -0.013,-0.036Z" style="fill:#595959;fill-rule:nonzero;"/></g><g transform="matrix(22,0,0,22,128.675,68.4226)"><path d="M0.216,-0.245l-0.057,0.059l0,0.186l-0.09,-0l-0,-0.75l0.09,0l0,0.454l0.049,-0.058l0.164,-0.174l0.11,-0l-0.206,0.22l0.23,0.308l-0.106,0l-0.184,-0.245Z" style="fill:#595959;fill-rule:nonzero;"/></g><g transform="matrix(22,0,0,22,139.611,68.4226)"><path d="M0.288,0.01c-0.072,-0 -0.13,-0.024 -0.175,-0.071c-0.045,-0.047 -0.068,-0.11 -0.068,-0.189l0,-0.016c0,-0.053 0.01,-0.099 0.03,-0.14c0.02,-0.042 0.048,-0.074 0.084,-0.097c0.036,-0.023 0.075,-0.035 0.117,-0.035c0.069,-0 0.122,0.023 0.161,0.068c0.038,0.045 0.057,0.11 0.057,0.194l-0,0.038l-0.358,-0c0.001,0.052 0.016,0.094 0.045,0.126c0.03,0.032 0.067,0.048 0.111,0.048c0.032,0 0.059,-0.006 0.082,-0.019c0.022,-0.014 0.041,-0.031 0.058,-0.052l0.055,0.043c-0.044,0.068 -0.111,0.102 -0.199,0.102Zm-0.012,-0.474c-0.036,0 -0.067,0.013 -0.091,0.04c-0.025,0.026 -0.04,0.064 -0.046,0.112l0.264,-0l0,-0.007c-0.002,-0.046 -0.015,-0.082 -0.037,-0.107c-0.022,-0.025 -0.052,-0.038 -0.09,-0.038Z" style="fill:#595959;fill-rule:nonzero;"/></g><g transform="matrix(22,0,0,22,79.1377,96.4226)"><path d="M0.574,-0.634l-0.229,0l0,0.634l-0.093,-0l-0,-0.634l-0.228,0l-0,-0.077l0.55,0l-0,0.077Z" style="fill:#595959;fill-rule:nonzero;"/></g><g transform="matrix(22,0,0,22,92.2647,96.4226)"><path d="M0.629,-0l-0.094,-0l-0,-0.329l-0.359,0l0,0.329l-0.093,-0l-0,-0.711l0.093,0l0,0.306l0.359,-0l-0,-0.306l0.094,0l-0,0.711Z" style="fill:#595959;fill-rule:nonzero;"/></g><g transform="matrix(22,0,0,22,108.142,96.4226)"><path d="M0.475,-0.186l-0.298,0l-0.067,0.186l-0.096,-0l0.271,-0.711l0.082,0l0.272,0.711l-0.096,-0l-0.068,-0.186Zm-0.269,-0.077l0.241,0l-0.121,-0.332l-0.12,0.332Z" style="fill:#595959;fill-rule:nonzero;"/></g><g transform="matrix(22,0,0,22,121.107,96.4226)"><path d="M0.574,-0.634l-0.229,0l0,0.634l-0.093,-0l-0,-0.634l-0.228,0l-0,-0.077l0.55,0l-0,0.077Z" style="fill:#595959;fill-rule:nonzero;"/></g><g transform="matrix(22,0,0,22,131.893,96.4226)"><path d="M0.07,-0.047c0,-0.016 0.005,-0.029 0.014,-0.039c0.01,-0.011 0.023,-0.016 0.042,-0.016c0.019,-0 0.033,0.005 0.042,0.016c0.01,0.01 0.015,0.023 0.015,0.039c-0,0.015 -0.005,0.027 -0.015,0.037c-0.009,0.01 -0.023,0.015 -0.042,0.015c-0.019,0 -0.032,-0.005 -0.042,-0.015c-0.009,-0.01 -0.014,-0.022 -0.014,-0.037Z" style="fill:#595959;fill-rule:nonzero;"/></g><g transform="matrix(22,0,0,22,137.683,96.4226)"><path d="M0.07,-0.047c0,-0.016 0.005,-0.029 0.014,-0.039c0.01,-0.011 0.023,-0.016 0.042,-0.016c0.019,-0 0.033,0.005 0.042,0.016c0.01,0.01 0.015,0.023 0.015,0.039c-0,0.015 -0.005,0.027 -0.015,0.037c-0.009,0.01 -0.023,0.015 -0.042,0.015c-0.019,0 -0.032,-0.005 -0.042,-0.015c-0.009,-0.01 -0.014,-0.022 -0.014,-0.037Z" style="fill:#595959;fill-rule:nonzero;"/></g><g transform="matrix(22,0,0,22,143.473,96.4226)"><path d="M0.07,-0.047c0,-0.016 0.005,-0.029 0.014,-0.039c0.01,-0.011 0.023,-0.016 0.042,-0.016c0.019,-0 0.033,0.005 0.042,0.016c0.01,0.01 0.015,0.023 0.015,0.039c-0,0.015 -0.005,0.027 -0.015,0.037c-0.009,0.01 -0.023,0.015 -0.042,0.015c-0.019,0 -0.032,-0.005 -0.042,-0.015c-0.009,-0.01 -0.014,-0.022 -0.014,-0.037Z" style="fill:#595959;fill-rule:nonzero;"/></g></g><path d="M878.377,260.44c-0,-0 5.19,7.912 -0.87,13.875c-6.059,5.962 -11.821,4.066 -11.821,4.066l-2.036,8.922l8.115,1.021c0,-0 -15.47,25.59 -32.159,22.691c-16.686,-2.9 -15.785,-10.833 -15.785,-10.833l-7.432,-27.763l-0.895,-5.159l10.455,-37.264l18.284,-6.291l16.649,9.963l17.495,26.772Z" style="fill:#e08a80;fill-rule:nonzero;"/><path d="M878.377,260.44c-0,-0 -4.293,-2.225 -8.651,-0.549c-4.361,1.675 -5.813,4.115 -7.389,10.297c-1.576,6.183 -4.658,14.647 -4.658,14.647c-0,0 -5.356,13.126 -22.305,16.134c-16.946,3.008 -24.041,-5.834 -24.67,-10.729c-0.623,-4.899 4.79,-22.98 4.79,-22.98c0,-0 0.126,1.896 1.927,3.04c1.805,1.143 6.12,0.363 14.639,3.603c8.518,3.24 11.624,8.167 17.929,5.999c6.306,-2.17 9.8,-11.481 10.464,-13.649l0.666,-2.17c-0,-0 -5.059,-9.065 -4.158,-15.165c0.898,-6.102 -0.595,-7.881 -0.595,-7.881l-26.56,-8.315c0,-0 -10.349,7.615 -13.56,-2.74c-3.208,-10.354 3.806,-9.948 3.806,-9.948c0,-0 -4.449,-7.813 2.866,-14.736c7.314,-6.923 16.185,5.539 22.974,4.264c6.788,-1.278 10.929,-3.583 15.547,-0.415c4.616,3.174 14.495,16.523 20.218,19.314c5.719,2.794 9.047,14.518 8.395,18.267c-0.646,3.749 -11.675,13.712 -11.675,13.712" style="fill:#474f6b;fill-rule:nonzero;"/><path d="M813.592,214.87c1.243,2.362 3.134,4.381 5.413,5.774c0.961,0.586 2.01,1.072 3.131,1.175c2.923,0.275 5.682,-3.98 1.896,-4.447c-3.798,-0.468 -6.995,-0.466 -10.44,-2.502" style="fill:#474f6b;fill-rule:nonzero;"/><path d="M840.499,199.934c-0.311,2.139 -0.629,4.295 -0.5,6.452c0.129,2.156 0.738,4.343 2.088,6.031c0.489,0.606 3.617,3.388 4.552,2.51c0.623,-0.583 -2.159,-3.408 -2.585,-4.06c-2.119,-3.246 -3.38,-7.058 -3.555,-10.933" style="fill:#474f6b;fill-rule:nonzero;"/><path d="M842.717,206.98c-3.177,-0.469 -6.514,0.211 -9.257,1.89c-1.169,0.715 -2.316,1.764 -2.407,3.131c-0.103,1.519 1.138,2.791 2.422,3.609c2.848,1.816 6.411,2.474 9.719,1.793c2.151,-0.446 7.658,-2.585 7.724,-5.336c0.066,-2.882 -6.045,-4.77 -8.201,-5.087" style="fill:#474f6b;fill-rule:nonzero;"/><path d="M867.767,218.351c0,0 8.888,-0.875 12.131,3.48c3.24,4.356 2.288,9.243 2.288,9.243l-7.627,0.715l-5.719,-6.755l-1.073,-6.683Z" style="fill:#474f6b;fill-rule:nonzero;"/><path d="M888.867,225.312l18.667,-20.686l6.732,8.693l20.884,-16.06l-21.688,27.135l-6.734,-8.693l-17.861,9.611Z" style="fill:#f6cc60;fill-rule:nonzero;"/><path d="M895.435,241.236l27.378,-5.181l0.103,10.998l26.342,-0.16l-33.683,8.49l-0.1,-10.992l-20.04,-3.155Z" style="fill:#f6cc60;fill-rule:nonzero;"/><path d="M873.534,208.488l4.968,-27.418l10.3,3.841l9.285,-24.653l-4.132,34.49l-10.3,-3.841l-10.121,17.581Z" style="fill:#f6cc60;fill-rule:nonzero;"/><path d="M878.79,253.957l1.035,-7.043l6.377,0.503l0.415,-5.705l-6.417,-0.466c-2.952,-0.215 -5.6,1.91 -6.031,4.835l-1.035,7.044l5.656,0.832Z" style="fill:#ea55a4;fill-rule:nonzero;"/><path d="M880.062,236.009l6.46,0.469l0.412,-5.705l-6.454,-0.469l0.652,-8.433l-5.705,-0.415l-0.615,8.479c-0.229,3.123 2.127,5.845 5.25,6.074" style="fill:#ea55a4;fill-rule:nonzero;"/><path d="M856.416,235.6l7.02,0.077c2.994,0.031 5.508,-2.282 5.725,-5.268l0.681,-9.359l-5.705,-0.415l-0.681,9.36l-6.977,-0.115l-0.063,5.72Z" style="fill:#ea55a4;fill-rule:nonzero;"/><path d="M864.097,252.41l5.705,0.414l0.46,-6.337c0.226,-3.125 -2.127,-5.85 -5.253,-6.076l-8.358,-0.609l-0.415,5.705l8.358,0.609l-0.497,6.294Z" style="fill:#ea55a4;fill-rule:nonzero;"/><path d="M885.471,290.052c0,0 22.688,1.396 32.222,21.193c9.531,19.794 27.641,84.215 24.307,99.428c-3.337,15.21 -18.553,17.355 -18.553,17.355l-32.385,-0.366l-5.591,-137.61Z" style="fill:#d7d7d7;fill-rule:nonzero;"/><path d="M874.797,427.82l-0,-19.257l-15.308,0c0,0 -15.101,-9.465 -19.534,-9.665c-4.429,-0.203 -8.659,4.429 -8.659,4.429c0,0 -13.946,0.604 -14.526,3.827c-0.578,3.222 9.694,20.666 9.694,20.666l48.333,-0Z" style="fill:#e08a80;fill-rule:nonzero;"/><path d="M874.797,408.564c-0,-0 27.166,-5.688 28.833,-9.674c1.67,-3.987 -7.386,-40.715 -7.386,-40.715" style="fill:none;fill-rule:nonzero;stroke:#fff;stroke-width:0.5px;"/></g></svg>