<svg baseProfile="tiny-ps" version="1.2" width="100%" height="100%" viewBox="0 0 613 613" xmlns="http://www.w3.org/2000/svg" xmlns:xlink="http://www.w3.org/1999/xlink" xml:space="preserve" xmlns:serif="http://www.serif.com/">
    <title>Mappstack</title>
    <path d="M341.107,411.173C377.879,411.168 407.571,440.819 407.575,477.537C407.575,514.341 377.848,544.046 341.039,544.024C304.375,543.996 274.711,514.228 274.734,477.474C274.756,440.824 304.434,411.177 341.107,411.173" fill="rgb(0,171,142)" fill-rule="nonzero"/>
    <path d="M253.29,68.481C278.126,68.503 298.322,88.758 298.267,113.58C298.213,138.324 277.985,158.466 253.213,158.448C228.32,158.425 208.273,138.293 208.309,113.349C208.35,88.518 228.46,68.454 253.29,68.481" fill="rgb(234,85,164)" fill-rule="nonzero"/>
    <path d="M513.988,328.123C513.684,310.165 528.689,294.848 547.141,294.875C564.877,294.902 580.298,308.996 580.352,327.969C580.411,346.91 565.153,361.348 547.064,361.307C528.213,361.262 513.689,345.673 513.988,328.123" fill="rgb(246,204,96)" fill-rule="nonzero"/>
    <path d="M98.539,261.801C98.798,279.374 84.264,294.99 65.215,294.864C47.053,294.741 32.189,280.394 32.189,261.566C32.189,242.607 47.741,228.341 65.677,228.445C83.644,228.549 98.92,243.517 98.539,261.801" fill="rgb(135,204,233)" fill-rule="nonzero"/>
    <path d="M419.122,165.666C419.095,165.629 419.067,165.593 419.045,165.566C419.018,165.593 418.968,165.62 418.968,165.652C418.963,165.679 419.009,165.715 419.031,165.747C419.063,165.72 419.095,165.693 419.122,165.666M418.827,166.268C418.796,166.227 418.768,166.187 418.746,166.15C418.71,166.182 418.655,166.214 418.655,166.25C418.651,166.286 418.7,166.322 418.728,166.359C418.759,166.327 418.796,166.3 418.827,166.268M441.782,228.686C441.755,228.659 441.728,228.605 441.692,228.605C441.664,228.6 441.624,228.646 441.587,228.668C441.619,228.7 441.651,228.75 441.683,228.75C441.714,228.754 441.751,228.709 441.782,228.686M476.122,230.603C476.163,230.576 476.199,230.548 476.24,230.521C476.208,230.489 476.154,230.422 476.14,230.426C476.086,230.462 476.04,230.512 475.991,230.557C476.036,230.571 476.077,230.589 476.122,230.603M475.016,230.816C475.048,230.852 475.089,230.924 475.112,230.92C475.193,230.902 475.279,230.861 475.361,230.829C475.329,230.793 475.288,230.72 475.27,230.725C475.184,230.743 475.103,230.784 475.016,230.816M408.793,197.029C408.752,196.925 408.707,196.798 408.657,196.666C408.602,196.78 408.512,196.893 408.507,197.002C408.507,197.11 408.607,197.219 408.661,197.323C408.702,197.237 408.738,197.156 408.793,197.029M408.308,194.469C408.154,194.945 408.027,195.362 408.39,195.819C408.507,195.334 408.575,194.922 408.308,194.469M444.102,229.606C443.404,229.207 442.974,228.768 441.991,228.981C442.734,229.357 443.15,229.833 444.102,229.606M447.065,230.834C446.304,230.263 445.407,229.928 444.396,229.914C445.212,230.367 446.014,230.847 447.065,230.834M415.787,174.481C416.974,172.035 417.989,169.53 418.433,166.83C416.666,169.077 416.481,171.867 415.787,174.481M462.739,233.312C466.776,233.334 470.713,232.8 474.437,231.119C470.581,232.075 466.64,232.551 462.739,233.312M415.62,162.807C417.613,158.807 420.957,155.966 424.091,152.949C424.522,152.922 424.966,152.917 424.984,152.315L425.31,152.016C425.627,152.12 425.94,152.224 426.252,152.328C426.289,152.419 426.298,152.514 426.289,152.614C425.958,152.976 425.627,153.339 425.297,153.701C424.313,154.236 423.557,154.992 423.036,155.98C421.6,157.099 421.006,159.006 419.317,159.912C419.027,160.071 418.578,160.882 418.859,161.031C420.146,161.711 419.185,162.481 419.076,163.215C418.673,163.5 418.406,163.858 418.411,164.442C419.009,164.252 419.095,163.799 419.267,163.409C420.091,162.599 420.395,161.357 421.342,160.646C421.903,161.072 421.346,161.865 422.044,162.118C421.487,163.74 419.96,164.882 419.779,166.694L419.801,166.694C419.534,166.64 419.443,166.848 419.326,167.016C418.034,168.71 418.284,170.862 417.663,172.755C417.658,172.764 417.826,172.832 417.917,172.869L416.191,178.618C415.679,179.388 415.892,180.262 415.833,181.1C415.312,181.608 415.629,182.265 415.529,182.844C414.451,188.91 414.736,194.949 416.218,200.902C416.784,203.167 417.156,205.586 418.891,207.403C418.941,207.521 418.986,207.643 419.036,207.761L419.19,207.403C419.389,207.689 419.625,207.951 419.779,208.255C422.202,213.175 425.478,217.465 429.464,221.202C430.429,222.104 431.24,223.286 432.654,223.631C432.654,223.83 432.767,223.925 432.957,223.939C433.161,224.523 433.687,224.668 434.185,224.858C434.411,225.198 434.588,225.701 435.105,225.153C435.929,224.949 436.523,225.515 436.939,225.991C437.913,227.11 439.263,227.54 440.478,228.229C441.338,228.718 441.202,228.061 441.23,227.586C443.857,228.51 446.68,229.094 449.058,230.453C451.02,231.577 453.026,231.962 455.061,232.107C461.643,232.573 468.212,232.442 474.505,230.05C486.202,225.601 495.638,218.425 500.735,206.733C505.841,195.004 506.62,182.903 501.17,171.025C497.518,163.07 492.594,155.998 484.816,151.327C476.983,146.629 468.57,144.101 459.437,144.097C454.666,144.092 450.073,145.361 445.438,146.317C443.789,146.656 442.167,147.073 440.604,147.712C440.083,147.925 439.544,148.043 438.969,148.047C437.791,148.052 436.704,147.834 436.097,146.697C435.485,145.556 435.906,144.527 436.618,143.58C438.806,140.649 441.732,138.647 444.949,137.025C448.922,135.023 453.212,134.13 457.579,133.695C471.99,132.259 484.752,136.422 496.014,145.37C505.546,152.935 511.304,162.952 514.661,174.495C517.116,182.944 517.601,191.588 515.241,199.992C508.998,222.19 494.95,236.732 472.144,242.096C467.066,243.288 461.87,243.7 456.678,242.912C451.432,242.114 446.127,241.571 441.112,239.577C439.526,238.943 438.19,237.955 436.767,237.104C432.441,234.53 427.883,232.179 424.264,228.691C417.708,222.362 412.829,214.837 409.672,206.216C408.448,202.877 408,199.421 407.343,195.982C407.239,195.443 407.162,194.872 407.357,194.324C407.778,194.528 407.819,194.224 407.873,193.944L407.869,193.948C408.38,193.504 408.127,192.906 408.181,192.372C408.403,190.215 407.551,188.05 408.335,185.893C408.602,185.155 408.702,184.312 408.204,183.56C408.231,183.361 408.254,183.162 408.276,182.962C408.852,182.808 408.806,182.378 408.725,181.938C409.033,179.329 409.4,176.724 410.433,174.282C412.059,170.413 413.663,166.526 415.62,162.807" fill="rgb(166,166,166)" fill-rule="nonzero"/>
    <path d="M297.386,275.481C297.349,275.404 297.309,275.322 297.268,275.245C297.218,275.309 297.123,275.381 297.132,275.435C297.145,275.535 297.227,275.626 297.281,275.721C297.313,275.644 297.349,275.567 297.386,275.481M270.761,179.842C270.72,179.715 270.684,179.593 270.643,179.47C270.598,179.529 270.526,179.583 270.512,179.647C270.498,179.728 270.539,179.819 270.553,179.905C270.612,179.887 270.67,179.869 270.761,179.842M280.75,212.179C280.959,211.758 280.968,211.468 280.678,211.191C280.492,211.495 280.551,211.771 280.75,212.179M280.429,210.639C280.723,210.312 280.601,210 280.42,209.674C280.125,210.004 280.238,210.317 280.429,210.639M271.069,177.35C271.472,180.621 272.673,183.307 273.642,186.429C273.801,184.096 272.501,179.552 271.069,177.35M294.858,264.753C294.695,264.798 294.527,264.839 294.359,264.88C295.021,268.137 295.65,271.399 296.819,274.529C296.942,274.498 297.059,274.466 297.182,274.439C296.407,271.209 295.632,267.983 294.858,264.753M279.64,205.565C279.563,205.664 279.486,205.764 279.423,205.873C279.418,205.882 279.527,205.954 279.586,205.995C279.609,205.855 279.631,205.719 279.654,205.578C279.758,205.574 279.862,205.565 279.967,205.56C279.935,205.832 279.849,206.113 280.098,206.367C280.347,206.036 280.361,205.769 279.944,205.583C279.994,205.388 280.03,205.098 279.813,205.084C279.613,205.075 279.586,205.356 279.64,205.565M275.985,227.913C276.003,224.927 274.888,222.159 274.281,219.301C273.629,216.224 272.555,213.23 272.088,210.136C271.481,206.136 270.181,202.276 269.837,198.239C270.032,197.65 269.289,196.876 269.828,196.536C270.693,195.997 270.249,195.462 270.149,194.851C269.787,192.608 269.076,190.434 268.867,188.159C268.555,184.83 267.907,181.563 266.987,178.356C265.791,173.218 265.674,167.954 264.672,162.794C264.826,162.767 264.985,162.74 265.139,162.713C265.601,164.04 266.136,165.345 266.503,166.695C266.888,168.108 267.11,169.562 267.404,171.003C266.793,172.987 267.617,174.732 268.333,176.494C268.419,176.584 268.224,176.865 268.541,176.797L268.319,176.507C268.179,175.619 268.5,174.926 269.203,174.396C269.334,174.985 269.465,175.583 269.601,176.177C269.751,177.042 269.887,177.921 270.421,178.904C270.566,177.803 270.308,176.992 270.018,176.181C269.783,175.461 269.973,174.591 269.257,174.043L269.262,174.052L269.302,173.173C269.402,173.141 269.502,173.11 269.601,173.083C269.678,173.114 269.76,173.128 269.846,173.123C270.476,173.594 270.598,174.405 271.083,174.972C271.087,175.366 270.974,175.878 271.681,175.597C271.907,176.562 272.206,177.518 272.338,178.496C272.424,179.149 273.389,179.13 273.23,179.873C273.04,179.878 272.976,179.996 272.995,180.159C272.999,180.204 273.099,180.245 273.158,180.281C273.176,180.145 273.198,180.005 273.221,179.864C274.159,179.692 274.227,180.44 274.345,181.015C274.653,182.601 275.029,184.182 275.146,185.785C275.287,187.688 276.673,189.088 276.986,190.877C277.416,193.324 278.236,195.657 278.875,198.044C279.061,198.742 279.106,199.34 278.413,199.775C278.395,199.521 278.598,199.231 278.277,199.009C278.068,199.336 278.109,199.576 278.435,199.757C278.626,200.921 278.109,202.307 279.532,203.096C279.672,203.173 279.582,203.671 279.6,203.975C279.405,203.952 279.237,203.988 279.192,204.215C279.187,204.246 279.233,204.319 279.264,204.323C279.482,204.373 279.609,204.274 279.677,204.074C280.859,204.881 280.868,206.213 281.172,207.409L281.19,207.399C280.963,207.386 280.904,207.549 280.864,207.726L280.882,207.712C280.551,206.969 280.238,207.019 279.939,207.73C279.926,207.49 279.908,207.245 279.894,207.005C279.831,207.042 279.717,207.069 279.708,207.119C279.663,207.363 279.645,207.617 279.967,207.712C279.776,208.491 280.112,208.885 280.882,208.949L280.864,208.935C280.977,211.087 281.801,213.08 282.218,215.223C282.857,214.729 282.812,214.136 282.712,213.533L282.694,213.552C283.093,213.991 282.861,214.566 283.006,215.06L283.025,215.047C282.427,215.359 282.431,215.676 283.025,215.989L283.006,215.975C283.006,216.483 283.011,216.99 283.011,217.502C282.812,217.488 282.794,217.565 282.902,217.71L283.02,217.511C283.392,217.846 283.124,218.336 283.31,218.716C283.111,218.721 283.093,218.802 283.21,218.947C283.251,218.875 283.292,218.811 283.333,218.743C283.7,219.079 283.423,219.572 283.623,219.948C283.441,219.953 283.396,220.016 283.518,220.166C283.559,220.093 283.595,220.03 283.632,219.962C284.012,220.302 283.745,220.809 283.949,221.194C283.781,221.181 283.695,221.217 283.826,221.389C283.863,221.317 283.89,221.244 283.926,221.172C284.393,221.072 284.134,220.528 284.415,220.333C285.226,223.722 285.915,227.147 286.907,230.481C287.342,231.945 287.954,233.426 288.416,234.871C288.869,236.298 289.652,237.639 289.82,239.216C289.992,240.869 290.581,242.478 290.98,244.108C291.378,245.744 292.004,247.357 292.126,249.01C292.733,257.101 295.564,264.685 297.494,272.459C299.891,282.086 301.984,291.79 304.453,301.398C308.018,315.243 311.013,329.233 314.841,343.014C316.762,349.936 317.776,357.058 319.752,363.966C323.086,375.618 325.383,387.519 328.169,399.307C328.876,402.284 328.885,405.364 329.197,408.404C329.347,409.822 328.781,411.09 327.426,411.679C326.157,412.237 325.052,411.652 324.16,410.674C321.364,407.607 319.543,403.973 318.207,400.095C313.622,386.799 310.32,373.14 306.899,359.518C304.149,348.563 301.422,337.605 298.627,326.664C296.076,316.661 294.233,306.504 291.809,296.479C289.322,286.19 286.934,275.879 284.452,265.591C283.899,263.326 283.681,261.006 283.165,258.746C282.526,255.923 281.521,253.183 280.932,250.351C280.18,246.727 279.64,243.053 279.106,239.388C278.902,237.993 278.037,236.878 277.774,235.514C277.475,233.974 276.85,232.506 276.863,230.894C276.872,229.924 276.338,229.091 275.985,228.216L275.971,228.23C276.048,228.194 276.175,228.175 276.188,228.126C276.238,227.958 276.129,227.895 275.971,227.904L275.985,227.913Z" fill="rgb(166,166,166)" fill-rule="nonzero"/>
    <path d="M172.814,252.573C172.778,252.491 172.741,252.41 172.705,252.328C172.664,252.405 172.592,252.482 172.587,252.559C172.587,252.641 172.651,252.722 172.683,252.799C172.728,252.727 172.769,252.65 172.814,252.573M161.139,307.009C161.044,307.122 160.954,307.185 160.954,307.244C160.954,307.38 160.999,307.516 161.026,307.652C161.08,307.589 161.171,307.534 161.18,307.466C161.189,307.335 161.157,307.195 161.139,307.009M163.681,285.92C163.636,285.807 163.599,285.725 163.563,285.644C163.504,285.748 163.423,285.843 163.4,285.952C163.386,286.029 163.459,286.12 163.491,286.201C163.559,286.101 163.622,286.006 163.681,285.92M164.922,326.403C164.836,326.208 164.8,326.122 164.764,326.036C164.691,326.122 164.587,326.199 164.555,326.299C164.533,326.371 164.614,326.471 164.65,326.562C164.755,326.503 164.854,326.444 164.922,326.403M160.736,309.179C160.972,308.866 161.044,308.563 160.804,308.223C160.541,308.531 160.523,308.834 160.736,309.179M161.456,300.132C161.534,299.806 161.597,299.665 161.588,299.529C161.579,299.366 161.588,299.017 161.343,299.167C161.062,299.334 161.144,299.683 161.456,300.132M157.579,336.687C158.294,334.675 158.53,331.418 158.154,329.619C157.248,332.011 157.497,334.367 157.579,336.687M172.374,253.116C171.441,256.442 170.626,259.359 169.806,262.272C170.902,261.321 172.565,255.209 172.374,253.116M172.66,249.356C173.888,243.716 176.171,238.411 177.915,232.934C181.562,221.472 185.861,210.251 190.645,199.224C196.784,185.053 203.602,171.227 211.897,158.157C214.012,154.818 216.395,151.742 219.077,148.87C220.006,147.873 221.098,147.248 222.466,147.71C223.952,148.208 224.6,149.377 224.563,150.913C224.486,154.062 223.757,157.101 222.393,159.901C218.076,168.794 213.654,177.633 209.242,186.476C204.277,196.42 199.941,206.627 196.009,217.019C192.571,226.098 188.783,235.05 185.861,244.323C183.397,252.138 181.299,260.061 178.894,267.89C177.652,271.931 176.887,276.058 175.827,280.126C175.378,281.829 174.635,283.46 174.051,285.132C173.503,286.722 173.059,288.299 173.063,290.038C173.072,291.755 172.316,293.373 171.899,295.04C170.603,300.222 169.552,305.468 168.578,310.724C168.003,313.863 167.273,316.971 166.58,320.088C166.358,321.075 165.928,322.027 166.118,323.078L166.136,323.064C165.257,324.505 165.479,326.181 165.171,327.744C164.718,330.032 164.283,332.324 163.762,335.001C163.405,332.292 164.32,330.059 164.329,327.753C162.521,333.207 161.574,338.839 160.695,344.524C160.65,343.98 160.609,343.437 160.569,342.893C159.821,345.765 159.712,348.778 158.249,351.224C158.322,348.719 158.34,345.992 159.033,343.324C159.078,342.997 159.128,342.671 159.169,342.345C159.545,342.386 159.182,342.984 159.676,342.911C159.613,341.611 160.338,340.347 159.853,338.961C159.463,339.541 159.948,340.229 159.441,340.728C159.2,340.388 159.395,339.26 158.494,340.198C158.534,339.686 158.571,339.174 158.611,338.657C158.929,337.371 159.264,336.08 158.938,334.413C158.643,336.048 158.403,337.371 158.167,338.694C158.05,339.799 157.932,340.913 157.814,342.019C156.917,341.715 157.642,340.601 156.908,340.211C156.894,340.03 156.881,339.849 156.867,339.663C156.958,339.192 157.094,338.712 156.573,338.381C156.523,337.026 157.144,335.713 156.863,334.326C156.346,334.458 156.754,334.997 156.432,335.192C156.568,334.585 155.567,334.53 155.807,333.833C156.518,331.749 156.654,329.552 157.071,327.409C157.121,327.16 157.27,326.797 157.162,326.675C155.925,325.311 157.13,324.043 157.28,322.738C157.393,321.75 157.461,320.749 157.588,319.762C157.647,319.299 157.329,318.489 158.371,318.742C158.457,318.765 158.693,318.529 158.684,318.507C157.882,317.025 159.898,316.174 159.504,314.733C159.363,314.203 159.042,313.582 159.4,312.975L159.382,312.993L159.685,312.993C159.721,313.07 159.762,313.138 159.803,313.211C159.83,313.175 159.857,313.143 159.884,313.111C159.83,313.061 159.771,313.016 159.712,312.966C159.45,312.133 160.469,311.652 160.301,310.841C160.664,310.538 160.768,310.216 160.324,309.718L160.324,310.86C159.595,309.188 160.646,307.643 160.682,306.021C160.709,304.567 161.244,303.131 160.908,301.654C161.552,301.4 161.33,300.997 161.094,300.49C160.786,300.911 160.877,301.296 160.926,301.672C160.297,300.657 160.985,299.706 161.148,298.764C161.719,295.524 162.838,292.322 162.961,289.078C163.146,284.153 164.025,279.347 165.652,274.848C168.238,267.713 169.24,260.202 171.622,253.048C171.863,252.333 171.767,251.517 172.257,250.878C172.424,251.091 172.587,251.304 172.791,251.567C173,250.561 173.638,249.737 173.403,248.699C173.045,248.822 173.081,249.352 172.66,249.356" fill="rgb(166,166,166)" fill-rule="nonzero"/>
    <path d="M120.072,452.124L120.126,452.052L120.036,452.043L120.072,452.124ZM111.165,442.837L111.111,442.91L111.202,442.919L111.165,442.837ZM104.542,395.505L104.46,395.441L104.442,395.546L104.542,395.505ZM178.268,449.959C178.214,449.896 178.168,449.791 178.109,449.782C178.028,449.773 177.942,449.841 177.856,449.873C177.906,449.936 177.951,450.045 178.01,450.05C178.087,450.059 178.177,449.995 178.268,449.959M103.337,398.853C103.305,398.816 103.274,398.78 103.242,398.744C103.206,398.826 103.165,398.907 103.142,398.993C103.138,399.025 103.196,399.07 103.228,399.106C103.264,399.02 103.301,398.939 103.337,398.853M108.479,379.558C108.42,379.613 108.316,379.658 108.311,379.712C108.302,379.785 108.375,379.866 108.411,379.943C108.474,379.898 108.592,379.853 108.592,379.812C108.592,379.73 108.524,379.649 108.479,379.558M198.233,395.777C198.21,395.577 198.192,395.419 198.002,395.491C197.943,395.509 197.889,395.654 197.902,395.722C197.934,395.849 198.015,395.967 198.079,396.08C198.138,395.967 198.201,395.845 198.233,395.777M113.652,382.553C113.788,382.449 113.902,382.362 114.015,382.276C113.897,382.195 113.779,382.045 113.666,382.05C113.544,382.054 113.421,382.195 113.299,382.276C113.412,382.362 113.521,382.453 113.652,382.553M132.213,366.053C132.44,365.732 132.218,365.673 132.131,365.7C131.964,365.75 131.787,365.854 131.678,365.985C131.524,366.167 131.733,366.266 131.842,366.244C132.009,366.212 132.159,366.085 132.213,366.053M133.273,455.731C133.767,455.998 134.265,456.564 134.795,455.853C134.918,455.685 134.967,455.259 134.859,455.164C134.107,454.498 133.889,455.717 133.273,455.731M144.535,361.836C145.636,362.253 146.406,361.659 147.24,361.147C146.171,360.803 145.405,361.41 144.535,361.836M102.195,422.809C102.059,423.262 101.289,422.533 101.321,423.298C101.344,423.878 101.901,423.787 102.232,423.946C102.639,424.145 102.78,423.837 102.762,423.493C102.739,423.162 102.762,422.75 102.195,422.809M110.558,442.633C110.708,441.333 109.829,441.419 108.914,441.152C109.145,442.303 110.223,441.986 110.558,442.633M140.707,458.009C141.536,458.277 142.257,458.358 143.176,458.322C142.42,457.375 141.731,457.108 140.707,458.009M184.891,448.224C185.444,447.975 186.046,447.821 186.046,447.109C186.046,446.996 185.652,446.48 185.213,446.702C184.533,447.041 184.733,447.594 184.891,448.224M177.009,453.262C175.813,452.985 175.237,453.628 174.576,454.249C175.745,454.761 176.207,453.81 177.009,453.262M107.487,388.904C108.642,387.604 108.642,387.604 108.103,386.476C108.171,387.464 106.925,387.903 107.487,388.904M150.37,458.974C150.76,459.957 151.453,459.907 152.151,459.762C152.405,459.708 152.636,459.459 152.477,459.21C152.087,458.616 151.453,459.151 150.959,458.952C150.837,458.902 150.674,458.961 150.37,458.974M103.645,406.69C104.388,405.752 104.411,404.96 104.084,404.099C103.609,404.806 103.264,405.53 103.645,406.69M197.155,392.125C196.756,393.077 197.494,393.507 198.043,394.005C198.219,394.164 198.478,394.114 198.514,393.878C198.668,393.004 198.002,392.633 197.431,392.211C197.359,392.157 197.245,392.152 197.155,392.125M136.838,456.523C137.586,456.709 138.003,457.783 138.936,457.284C139.307,457.085 138.968,456.727 138.814,456.505C138.188,455.631 137.523,456.252 136.838,456.523M126.537,366.724C126.899,366.638 127.764,366.937 128.276,366.035C128.435,365.75 128.557,365.501 128.29,365.224C127.995,364.916 127.687,365.102 127.515,365.31C127.103,365.827 126.759,366.393 126.537,366.724M103.767,413.191C103.174,414.768 103.894,416.29 103.822,417.848C104.238,416.285 103.93,414.736 103.767,413.191M125.617,367.494C125.531,367.132 125.259,367.086 125.051,367.15C124.262,367.381 123.316,367.449 123.279,368.604C123.266,369.025 123.451,369.365 123.882,369.234C124.743,368.966 125.042,368.101 125.617,367.494M124.761,450.865C124.906,450.412 125.567,450.978 125.708,450.417C125.748,450.249 125.63,449.886 125.608,449.891C124.299,450.009 123.66,448.808 122.627,448.387C122.373,448.283 122.156,448.201 121.988,448.496C121.861,448.722 121.734,449.017 121.979,449.18C122.867,449.764 123.583,450.62 124.761,450.865M127.039,457.126C128.376,459.065 130.609,459.323 132.562,460.143C134.324,460.881 137.912,461.878 138.546,461.688C137.033,460.12 134.455,460.111 132.979,458.218C132.784,457.969 132.313,458.005 131.9,457.991C130.79,457.964 129.508,458.557 128.589,457.375C128.263,456.954 127.742,457.135 127.302,457.09C127.166,456.659 127.171,455.957 126.731,455.916C125.191,455.771 124.593,454.326 123.411,453.715C122.631,453.311 122.129,452.432 121.186,452.301C121.186,453.642 122.074,454.05 123.08,454.471C123.827,454.779 123.923,455.885 125.078,456.007C125.608,456.061 126.709,456.211 127.039,457.126M147.163,359.716L147.761,359.738C147.947,359.756 148.024,359.67 148.001,359.485C150.008,359.389 152.015,358.914 154.026,359.181C154.987,359.312 154.085,358.76 154.325,358.524C154.742,358.116 154.076,358.293 153.963,358.293C152.708,358.279 151.449,358.162 150.212,358.139C149.238,358.121 147.743,357.314 147.14,358.995C147.068,358.864 146.968,358.61 146.927,358.619C145.894,358.846 144.603,357.623 143.806,359.154C143.602,359.539 143.335,359.457 143.063,359.281C142.085,358.655 141.101,359.96 140.1,359.276C140.014,359.222 139.593,359.444 139.679,359.77C139.815,360.291 139.516,360.477 139.131,360.359C138.17,360.073 137.767,360.685 137.355,361.333C136.431,360.563 135.824,361.822 135.004,361.709C133.178,361.446 132.313,363.154 130.899,363.738C130.636,363.847 130.523,364.264 130.763,364.531C131.003,364.794 131.194,364.477 131.398,364.364C132.634,363.684 133.966,363.249 135.303,362.792C136.059,362.529 137.201,362.547 137.355,361.333C138.066,361.695 138.728,361.75 139.48,361.31C140.173,360.912 140.97,360.526 141.749,360.459C143.638,360.291 145.473,360.042 147.167,359.131C147.163,359.253 147.158,359.376 147.149,359.503L146.95,359.634L147.163,359.716ZM119.492,371.331C119.578,371.408 119.664,371.481 119.75,371.558C120.013,372.6 120.548,371.712 121.073,371.807C119.737,370.901 121.218,370.389 121.263,369.687C119.021,370.131 117.503,371.562 117.123,373.542C116.815,373.841 116.452,374.113 116.674,374.638C117.24,374.484 117.172,374.027 117.268,373.66C117.784,373.769 118.305,374.049 118.717,373.397C119.166,372.686 117.779,373.171 118.219,372.486C119.297,372.867 119.193,371.875 119.492,371.331M126.636,451.613C126.981,451.114 126.659,450.711 126.455,450.253C126.206,451.169 126.206,451.169 126.654,451.599C126.586,452.066 126.165,452.641 126.749,452.963C127.896,453.597 129.096,454.118 130.274,454.684C130.491,454.793 130.704,454.725 130.804,454.548C130.945,454.29 130.79,454.014 130.582,453.9C129.255,453.157 128.113,452.088 126.636,451.613M193.965,386.127C193.925,386.104 193.888,386.082 193.852,386.059C193.893,386.077 193.934,386.095 193.974,386.114C193.897,386.607 194.156,386.974 194.4,387.364C194.654,387.772 194.432,388.795 195.18,388.501C196.036,388.166 195.257,387.387 195.143,386.82C195.021,386.204 194.486,386.145 193.965,386.127M106.463,435.675C106.413,435.634 106.368,435.598 106.313,435.557C106.354,435.607 106.395,435.657 106.431,435.707C106.784,436.291 105.842,437.233 106.97,437.664C107.183,436.862 107.65,436.055 106.463,435.675M103.754,398.114C103.949,397.838 104.139,397.557 104.343,397.285C104.637,396.891 104.429,396.529 104.293,396.157C104.198,395.913 103.998,395.899 103.822,396.03C103.464,396.298 103.677,396.66 103.686,396.995C103.695,397.344 103.681,397.693 103.677,398.042C103.55,398.105 103.355,398.146 103.582,398.323C103.586,398.327 103.695,398.187 103.754,398.114M118.355,444.6C118.441,444.717 118.527,444.831 118.618,444.944C118.781,445.361 118.921,445.814 119.515,445.714C119.592,445.7 119.714,445.578 119.709,445.51C119.673,444.935 119.08,445.044 118.776,444.785C118.663,444.695 118.554,444.6 118.445,444.509C118.35,444.396 118.26,444.282 118.169,444.169C118.083,444.051 117.988,443.943 117.87,444.124C117.857,444.147 117.97,444.255 118.024,444.319C118.133,444.414 118.242,444.509 118.355,444.6M195.972,384.736C196.086,384.773 196.194,384.809 196.303,384.841C196.262,384.736 196.226,384.628 196.185,384.519C196.09,384.451 195.932,384.306 195.904,384.329C195.696,384.487 195.859,384.619 195.972,384.736M184.565,453.524C184.624,453.461 184.742,453.357 184.733,453.348C184.583,453.139 184.524,453.293 184.456,453.425C184.339,453.461 184.207,453.493 184.275,453.669C184.375,453.624 184.47,453.574 184.565,453.524M179.242,363.507C178.082,363.539 176.936,363.562 176.098,362.515C175.871,362.234 175.396,361.895 175.079,362.212C174.485,362.792 173.996,362.266 173.819,362.003C173.017,360.835 171.821,361.047 170.707,360.925C170.195,360.431 169.475,360.413 168.881,360.101C168.573,359.765 168.156,359.824 167.753,359.765C166.48,359.571 165.103,359.566 163.966,359.05C162.421,358.338 160.949,358.501 159.413,358.723C158.23,358.447 157.143,358.968 156.024,359.208C157.111,358.728 158.443,360.386 159.404,358.714C159.83,359.131 160.328,359.353 160.899,359.593C162.108,360.096 163.44,359.711 164.65,360.449C165.28,360.83 166.394,360.44 166.978,361.342C167.132,361.582 167.287,361.523 167.354,361.247C167.576,360.3 168.206,361.269 168.573,360.993C169.076,361.627 169.778,361.22 170.381,361.337C170.847,362.203 171.676,362.511 172.546,362.755C173.081,362.905 173.633,363.009 174.154,363.195C174.626,363.353 175.332,363.593 175.011,364.178C174.694,364.771 174.304,364.196 173.955,363.906C173.529,363.557 172.99,363.752 172.36,363.788C173.353,365.193 174.906,365.36 176.229,365.931C177.09,366.416 178.173,366.706 178.055,368.033C176.148,367.589 174.485,366.665 172.922,365.514C172.569,365.252 172.134,364.74 171.604,365.347C171.459,365.514 171.255,365.528 171.083,365.338C170,364.151 168.605,364.255 167.155,364.164C165.982,364.087 164.682,364.069 163.626,363.032C162.96,362.375 161.755,362.946 160.808,362.81C158.742,362.515 156.69,362.144 154.633,361.795C154.434,361.763 154.158,361.555 154.067,361.623C152.749,362.629 151.131,361.963 149.741,362.429C149.233,362.597 148.848,362.832 148.427,362.325C148.354,362.234 148.087,362.175 148.024,362.23C146.135,363.933 143.271,362.592 141.405,364.35C138.818,363.915 136.911,365.995 134.478,366.239C133.586,366.334 132.77,367.068 131.9,367.471C131.62,367.603 131.352,367.897 130.949,367.553C130.618,367.268 131.18,366.393 130.451,366.606C129.594,366.851 128.412,367.141 128.217,368.029C127.968,369.179 127.162,369.542 126.41,370.108C125.676,370.647 124.774,370.987 124.253,371.784C123.954,372.242 123.583,372.065 123.184,372.074C122.477,372.088 121.435,371.843 122.043,373.229C122.142,373.451 121.934,373.846 121.657,373.605C121.105,373.134 121.059,373.723 120.91,373.918C119.986,375.137 118.953,376.224 117.648,377.044C117.458,377.166 117.268,377.456 117.259,377.669C117.222,379.223 116.235,379.744 114.916,380.097C114.169,380.297 113.825,380.772 114.663,381.493C115.261,382.005 114.821,382.689 114.3,382.825C113.113,383.133 112.502,383.953 111.949,384.904L111.963,384.89C111.378,384.736 111.183,385.189 111.197,385.561C111.211,386.018 111.682,385.679 111.926,385.783L111.967,385.824C111.636,386.372 111.084,386.852 111.541,387.595C111.99,388.338 111.106,388.614 110.957,389.167C110.635,390.381 109.915,391.455 109.743,392.737C109.688,393.117 109.457,393.747 109.226,393.788C107.709,394.028 108.057,395.55 108.157,396.071C108.47,397.684 107.718,398.789 107.065,400.049C106.721,400.719 106.676,401.548 106.744,402.341L106.762,402.327C106.309,402.545 106.463,402.758 106.762,402.966L106.744,402.953C107.133,404.701 106.617,406.441 106.522,408.162C106.282,412.367 106.766,416.507 107.45,420.58C107.917,423.339 109.19,426.003 110.35,428.639C111.99,432.363 113.965,435.856 116.511,439C117.952,440.785 119.32,442.638 120.842,444.341C122.228,445.891 123.977,447.205 125.644,448.369C128.847,450.611 132.39,452.405 136.222,453.447C136.367,453.488 136.626,453.406 136.666,453.47C137.631,455.191 139.516,454.195 140.87,454.901C142.257,455.622 143.924,455.613 145.496,455.74C145.691,455.871 145.885,455.975 146.103,455.78C145.981,455.667 145.858,455.554 145.74,455.441C146.411,455.114 147.109,455.024 147.838,455.241C147.793,455.59 146.968,455.635 147.412,456.129C147.91,456.677 149.428,456.369 149.926,455.69C150.946,455.622 152.028,455.056 152.916,456.066C155.227,454.892 157.805,456.084 160.16,455.282C160.387,455.205 160.659,455.268 160.953,455.268C160.151,456.061 160.971,456.433 161.325,456.868C161.705,457.339 163.069,457.103 163.694,456.51L164.374,456.437C164.546,456.478 164.722,456.523 164.899,456.569C164.904,456.668 164.913,456.763 164.94,456.863C164.99,457.189 165.139,457.515 165.493,457.434C166.978,457.09 168.455,456.695 170.263,456.238C169.013,455.626 168.22,456.963 167.364,456.138L167.957,455.753C168.523,455.042 169.765,454.956 169.805,453.755L169.796,453.764C170.254,453.927 170.435,453.737 170.417,453.284C170.48,453.289 170.535,453.262 170.58,453.216C170.671,453.103 170.766,452.985 170.861,452.872L170.847,452.872C171.64,452.056 172.51,451.613 173.692,452.034C174.218,452.22 174.077,451.594 174.272,451.372C174.775,450.793 175.301,449.945 176.152,450.928C176.42,451.241 176.71,451.096 176.714,450.947C176.75,449.153 178.739,449.587 179.414,448.545L182.427,446.81C183.061,446.249 183.682,445.669 184.343,445.139C184.642,444.894 184.914,444.296 185.448,444.844C185.48,445.27 185.303,445.646 185.045,446.067C185.72,445.691 186.309,445.515 186.866,446.09C187.274,445.565 187.378,444.813 187.17,444.36C186.83,443.617 186.418,444.482 186.015,444.568C185.978,444.042 185.888,443.49 186.626,443.358L186.613,443.34C186.731,443.662 186.975,443.689 187.156,443.463C187.288,443.295 187.134,443.105 186.925,443.028L186.939,443.046C187.301,442.665 187.356,441.777 188.271,442.348C188.688,442.611 188.778,442.162 188.769,441.872C188.742,440.853 189.499,440.432 190.192,439.961C191.347,439.172 191.886,437.936 192.643,436.821C193.512,435.539 193.802,434.021 194.681,432.762C195.669,431.344 196.534,429.826 196.724,428.041C196.747,427.847 196.829,427.652 196.906,427.471C197.445,426.27 197.59,424.943 197.988,423.742C198.446,422.356 197.979,421.142 198.043,419.855C198.573,419.81 198.342,420.476 198.885,420.553C198.441,419.878 199.968,419.099 198.595,418.528C198.854,418.039 198.582,417.241 199.438,417.096C200.095,416.987 200.004,416.331 199.66,416.335C198.342,416.353 198.808,415.397 198.908,414.931C199.221,413.513 198.894,412.108 199.008,410.727C199.098,409.671 198.876,408.593 199.184,407.551C199.402,407.089 199.9,407.959 200.104,407.352C200.512,406.11 199.637,404.878 198.269,404.774C198.179,404.131 198.088,403.487 197.997,402.848C198.613,402.645 198.591,403.573 199.134,403.374C199.56,401.716 198.546,401 196.978,400.456C198.496,399.306 197.671,397.938 197.585,396.628C197.558,396.153 197.327,396.171 196.996,396.343C196.91,396.388 196.616,396.801 196.756,396.311C197.445,393.933 196.117,392.225 194.921,390.458C196.126,390.599 196.326,390.005 196.031,389.017C195.46,388.868 195.415,389.742 194.862,389.525C194.287,388.9 193.598,388.379 193.2,387.595C192.86,386.943 192.597,386.272 192.982,385.574C193.358,384.886 194.002,385.715 194.446,385.434C194.717,384.696 193.784,384.741 193.725,384.147C194.591,383.916 195.456,383.69 196.62,383.377C194.708,382.095 194.278,380.002 193.241,378.29C192.72,377.434 192.43,376.704 191.388,376.432C191.12,376.364 190.853,375.803 191.08,375.386C191.401,374.792 191.986,374.752 192.543,374.887C193.164,375.037 193.784,375.422 193.517,376.133C193.231,376.89 193.675,377.311 194.047,377.692C194.278,377.936 194.853,378.82 195.211,377.705C195.297,377.443 195.352,377.538 195.42,377.665C195.601,378 196.167,378.403 195.859,378.675C195.048,379.395 195.596,379.49 196.167,379.744C196.475,379.884 196.733,380.17 196.788,380.564C196.81,380.723 196.81,381.139 196.978,380.958C198.106,379.708 198.065,381.189 198.391,381.57C198.845,382.104 198.6,383.192 199.719,383.223C199.778,383.228 199.896,383.395 199.882,383.463C199.619,384.578 200.589,385.121 201.06,385.846C201.685,386.811 202.165,387.889 202.627,388.868C204.322,392.474 205.839,396.157 206.56,400.153C206.899,402.024 207.294,403.936 207.565,405.802C208.073,409.304 208.367,412.892 207.629,416.435C207.484,417.132 207.23,417.817 207.516,418.523C207.724,419.04 207.371,419.348 207.062,419.543C206.523,419.887 206.369,420.349 206.415,420.888C205.672,421.232 205.69,419.724 205.155,420.304C204.507,421.006 203.869,422.107 204.113,422.972C204.489,424.295 203.212,425.45 204,426.691C204.009,426.709 203.964,426.791 203.928,426.818C201.671,428.562 201.703,431.439 200.503,433.695C199.393,435.775 198.432,437.99 196.665,439.648C196.058,440.214 195.882,441.043 195.483,441.682C193.218,445.306 190.155,448.065 186.857,450.643C186.024,450.96 185.489,451.703 184.755,452.165C184.832,452.401 184.601,453.008 185.236,452.555L185.231,452.587C185.199,453.271 185.222,453.932 186.332,454.104C185.24,454.503 184.461,454.657 183.496,454.186C182.404,453.651 181.448,454.675 180.402,454.897C180.234,454.933 180.08,455.296 180.252,455.4C181.19,455.943 180.565,456.252 180.057,456.292C179.029,456.369 178.404,457.38 177.303,457.325C176.963,457.307 176.071,457.121 176.134,458.299C176.161,458.779 174.884,459.418 174.037,459.699C174.29,460.311 174.621,460.052 174.893,460.057C175.142,460.061 175.464,460.048 175.504,460.356C175.563,460.818 175.097,460.65 174.893,460.8C173.511,461.801 172.039,461.973 170.381,461.643C169.524,461.47 170.675,462.395 170.068,462.54C169.275,462.725 168.641,463.477 167.817,463.387C166.226,463.21 164.867,463.808 163.481,464.406C163.033,464.601 162.566,464.909 162.036,464.565C161.923,464.488 161.637,464.442 161.619,464.479C160.822,465.987 159.223,464.574 158.579,465.149C157.451,466.155 156.4,465.552 155.367,465.752C153.8,466.051 152.427,465.77 151.009,465.52C150.461,465.421 150.361,465.434 150.18,465.91C149.886,466.721 149.306,466.585 148.608,466.164C148.857,465.856 149.646,466.196 149.505,465.539C149.41,465.095 149.016,465.054 148.649,465.108C146.18,465.48 143.774,464.746 141.328,464.655C140.531,464.623 139.543,464.266 138.873,463.939C137.704,463.378 136.363,463.5 135.275,462.698C134.424,462.073 134.215,462.725 134.324,463.509L134.288,463.55C133.858,463.346 133.386,463.473 133.355,462.562C133.323,461.67 132.082,461.135 131.203,460.995C129.635,460.746 128.367,459.93 127.026,459.242C125.137,458.263 122.835,457.864 121.404,456.292C119.872,454.616 117.684,453.959 116.171,452.233C115.184,451.105 114.124,449.932 112.932,448.931C112.148,448.274 112.185,447.037 111.183,446.389C110.853,446.181 110.884,445.388 110.069,445.623C109.956,445.66 109.589,445.22 109.521,444.953C109.14,443.399 107.872,442.452 107.038,441.215C107.55,441.157 107.822,440.604 108.615,440.762C108.021,440.296 107.822,439.634 107.333,439.838C106.766,440.078 107.16,440.753 107.047,441.225C106.377,441.129 106.2,440.613 106.019,440.06C105.806,439.408 105.665,438.683 104.954,438.325C104.687,438.189 104.691,437.94 104.655,437.682C104.565,437.025 105.915,437.741 105.439,436.889C105.253,436.558 104.569,437.088 104.189,436.468C103.156,434.787 102.476,432.943 101.615,431.185C100.478,428.87 100.284,426.32 99.726,423.874C99.323,422.116 99.06,420.363 98.413,418.637C98.163,417.975 97.837,416.738 98.503,415.796C99.228,414.768 98.15,413.785 98.381,412.638C98.639,411.361 98.684,409.947 98.372,408.57C98.177,407.705 99.024,406.885 98.838,405.938C98.363,403.523 99.568,401.335 99.753,399.007C99.853,398.907 99.953,398.803 100.057,398.703C100.256,398.608 100.438,398.395 100.252,398.255C100.016,398.078 99.975,398.382 99.912,398.549C99.83,398.676 99.749,398.798 99.667,398.925C99.056,398.753 99.187,398.508 99.495,398.078C99.799,397.657 100.388,397.145 99.599,396.565C99.527,396.515 99.636,396.03 99.785,395.908C100.107,395.645 100.148,396.085 100.297,396.225C100.954,396.823 101.049,396.669 101.425,395.836C102.109,394.322 101.244,392.914 101.529,391.477C101.557,391.328 101.502,391.065 101.57,391.038C103.323,390.254 102.399,387.835 104.374,386.866C105.715,386.2 106.517,384.261 106.92,382.507C107.02,382.054 106.78,381.162 107.849,381.298C108.039,381.325 108.311,380.958 107.913,380.51C107.333,379.862 107.894,379.187 108.461,378.938C110.241,378.158 110.404,377.982 110.051,376.337C110.024,376.21 110.078,376.025 110.16,375.916C110.318,375.703 110.54,375.771 110.667,375.939C111.437,376.949 111.51,376.197 112.026,375.608C113.104,374.38 113.965,372.967 115.301,371.947C117.263,370.448 119.089,368.776 121.019,367.236C123.809,365.016 126.804,363.104 130.052,361.645C132.199,360.685 134.306,359.629 136.626,359.041C137.894,358.719 139.493,359.013 140.372,357.604C142.479,358.13 144.372,357.002 146.388,356.771C149.007,356.472 151.634,356.422 154.244,356.282C156.722,356.146 159.25,356.775 161.746,357.156C165.438,357.718 169.035,358.701 172.61,359.765C173.797,360.119 174.802,361.269 176.229,360.694C176.691,362.234 179.015,361.713 179.292,363.462L179.242,363.507Z" fill="rgb(166,166,166)" fill-rule="nonzero"/>
    <path d="M370.806,404.869C370.775,404.782 370.738,404.701 370.707,404.619C370.67,404.651 370.607,404.683 370.602,404.719C370.598,404.805 370.616,404.891 370.63,404.982C370.688,404.946 370.747,404.905 370.806,404.869M372.428,395.178C372.469,395.106 372.505,395.033 372.537,394.961C372.505,394.952 372.442,394.92 372.433,394.934C372.387,394.997 372.347,395.069 372.31,395.142C372.347,395.151 372.387,395.165 372.428,395.178M371.826,395.822C370.616,397.185 370.543,398.902 370.321,400.569C371.232,399.115 371.93,397.593 371.826,395.822M395.918,332.556C394.636,334.712 393.843,337.064 393.209,339.469C394.237,337.218 395.745,335.156 395.949,332.579C396.026,332.479 396.103,332.379 396.18,332.28C396.126,332.243 396.072,332.207 396.022,332.171C395.99,332.298 395.954,332.425 395.918,332.556M374.249,402.368C373.737,403.514 373.429,404.823 372.673,405.779C371.255,407.564 370.226,409.535 369.189,411.524C369.094,411.709 368.659,411.718 368.383,411.809L368.401,411.827C368.265,410.278 369.103,409.036 369.696,407.718C369.941,407.174 370.272,406.649 370.231,406.015C370.462,405.947 370.525,405.788 370.466,405.571C370.453,405.534 370.389,405.516 370.344,405.489C370.308,405.661 370.267,405.833 370.231,406.01C370.022,406.006 369.814,406.001 369.606,405.997L369.624,406.01C369.755,405.53 369.887,405.045 370.013,404.56C370.344,404.289 370.303,403.926 370.235,403.564C370.457,403.496 370.525,403.337 370.471,403.12C370.462,403.084 370.394,403.065 370.353,403.034C370.312,403.21 370.267,403.383 370.226,403.559C369.823,403.682 369.905,404.08 369.769,404.361C369.175,404.628 368.7,403.768 368.088,404.166L368.102,404.184C368.138,403.147 368.636,402.25 369.039,401.339C369.615,400.057 370.258,398.821 369.307,397.448C369.343,397.561 369.316,397.774 369.529,397.575L369.316,397.439C369.864,396.302 370.525,395.205 370.929,394.023C371.844,391.359 372.455,388.587 373.592,385.995C373.842,385.429 373.642,384.074 375.065,384.695C375.092,384.704 375.346,384.201 375.495,383.934C376.433,382.131 377.371,380.328 378.313,378.529C378.571,378.04 378.73,377.596 377.901,377.583C378.014,377.275 378.123,376.966 378.231,376.658C379.06,377.356 379.174,376.554 379.513,376.088C380.256,375.082 379.581,373.913 379.93,372.894C380.374,371.603 381.072,370.393 381.457,369.088C382.313,366.189 384.628,363.729 384.044,360.399C383.994,360.109 384.334,359.769 384.438,359.439C385.04,357.559 386.626,356.123 386.848,354.075C387.804,352.725 388.316,351.198 388.678,349.613C387.84,350.981 387.079,352.376 386.685,353.93C386.395,354.052 386.105,354.175 385.815,354.292C386.467,352.222 386.911,350.12 388.551,348.43C389.376,347.578 389.63,346.151 390.087,344.964C393.856,335.233 397.684,325.53 401.771,315.925C406.052,305.854 410.061,295.661 414.03,285.464C415.579,281.468 417.654,277.703 419.104,273.685C422.311,264.815 426.257,256.257 429.895,247.568C430.932,245.09 432.522,242.97 433.972,240.763C435.141,238.996 437.886,239.318 438.969,241.234C439.454,242.082 439.608,243.037 439.712,244.011C440.188,248.351 438.915,252.379 437.628,256.42C435.182,264.09 432.187,271.56 429.22,279.035C426.153,286.746 423.194,294.497 420.001,302.153C416.594,310.312 412.933,318.372 409.45,326.499C406.641,333.05 404.122,339.737 401.1,346.188C399.637,349.323 398.482,352.557 397.186,355.747C396.774,356.761 396.026,357.513 395.514,358.442C394.269,360.68 393.616,363.14 392.62,365.455C390.889,369.501 388.864,373.419 387.201,377.501C385.457,381.778 383.541,385.977 381.43,390.082C381.117,390.267 381.022,391.038 380.85,390.852C379.658,389.565 379.781,391.178 379.622,391.472C378.734,393.126 378.249,394.997 377.121,396.515C375.794,398.3 375.096,400.361 374.249,402.368" fill="rgb(166,166,166)" fill-rule="nonzero"/>
    <path d="M85.033,305.985C85.001,305.903 84.969,305.826 84.938,305.745C84.883,305.795 84.793,305.835 84.788,305.885C84.784,305.962 84.838,306.044 84.87,306.121C84.924,306.08 84.974,306.03 85.033,305.985M85.853,309.818C85.88,309.623 85.916,309.482 85.903,309.342C85.898,309.278 85.803,309.22 85.749,309.156C85.717,309.292 85.672,309.428 85.672,309.568C85.672,309.632 85.762,309.7 85.853,309.818M80.412,299.221C80.557,300.372 81.064,301.002 81.866,301.627C81.957,300.431 81.422,299.792 80.412,299.221M76.769,304.422C77.127,303.425 76.924,302.293 76.593,301.495C75.773,299.534 76.167,297.509 75.854,295.543L75.836,295.556C76.19,294.972 76.593,294.881 76.892,295.561C77.209,296.295 77.435,297.074 77.725,297.894C78.156,297.695 77.97,297.282 78.115,297.033C78.6,297.418 78.45,298.206 79.075,298.528C79.338,297.998 78.758,297.572 78.917,297.069L78.89,297.087C79.112,297.255 79.47,297.608 79.537,297.563C80.965,296.53 80.91,297.926 81.223,298.601C81.44,299.067 81.531,299.448 82.215,299.47C82.65,299.484 83.107,299.815 83.13,300.54C83.175,302.012 84.747,302.723 85.087,304.105C85.2,304.567 85.567,304.911 85.341,305.491C84.879,306.66 86.491,306.828 86.55,307.779L86.573,307.765C86.156,307.788 85.721,307.349 85.314,307.797C85.309,307.652 85.3,307.507 85.291,307.362C85.232,307.398 85.169,307.43 85.11,307.462C85.187,307.566 85.264,307.675 85.341,307.779C86.052,308.912 86.27,310.443 87.846,310.891C88.222,310.995 88.218,311.381 88.34,311.666C88.906,312.966 89.038,314.67 90.111,315.48C91.67,316.663 92.236,318.357 92.589,319.897C93.917,325.651 97.391,330.399 99.706,335.676C101.759,340.352 104.536,344.728 107.064,349.195C109.967,354.328 113.374,359.166 116.056,364.421C118.05,368.335 116.12,370.573 112.156,371.022C110.262,371.239 108.482,370.496 107.032,369.087C102.973,365.123 100.042,360.348 97.301,355.46C95.883,352.928 94.121,350.622 92.77,348.062C92.53,347.609 92.2,347.197 92.037,346.726C89.966,340.651 86.564,335.146 84.408,329.135C83.483,326.562 82.41,324.015 81.594,321.374C80.634,318.257 79.646,315.041 78.16,312.065C77.676,311.086 77.734,309.994 77.304,309.02C77.63,308.721 77.956,308.472 78.292,309.007C78.332,309.143 78.373,309.278 78.409,309.414L78.527,309.333C78.45,309.224 78.373,309.115 78.296,309.007C77.956,307.571 78.088,306.008 77.159,304.73C77.064,304.576 77.019,304.363 76.76,304.399L76.769,304.422Z" fill="rgb(166,166,166)" fill-rule="nonzero"/>
    <path d="M527.824,254.234C527.874,254.275 527.919,254.316 527.969,254.356C527.924,254.316 527.879,254.27 527.833,254.225C527.874,253.958 527.806,253.731 527.602,253.55C527.285,252.807 526.945,252.078 525.926,251.398C526.338,252.522 526.547,253.314 527.398,253.718L527.824,254.234ZM515.275,237.712C517.436,239.52 519.765,241.151 521.409,243.506C521.45,243.592 521.382,243.855 521.613,243.633C521.536,243.597 521.464,243.565 521.387,243.534C521.446,242.999 521.645,242.886 521.953,243.379C522.805,244.748 523.887,245.876 524.445,247.552C525.079,249.446 526.705,251.013 527.942,252.689C531.702,257.786 534.561,263.412 537.632,268.921C540.559,274.172 543.105,279.59 545.098,285.253C545.864,287.428 546.865,289.602 546.457,292.067C546.331,292.846 546.081,293.371 545.415,293.784C542.471,295.596 538.756,294.875 536.753,292.071C533.827,287.98 531.983,283.314 529.84,278.815C528.98,277.003 527.942,275.327 526.841,273.701C525.319,271.458 524.712,268.822 523.362,266.484C521.55,263.354 519.516,260.354 517.83,257.161C516.567,254.764 515.031,252.517 513.694,250.17C512.263,247.652 510.618,245.119 508.72,242.831C507.755,241.676 506.894,240.403 506.396,238.944C506.872,238.55 506.967,239.248 507.307,239.252C507.361,239.293 507.415,239.334 507.465,239.375C507.424,239.32 507.384,239.271 507.343,239.216C507.27,238.745 507.506,238.111 506.718,238.007C505.567,236.643 505.621,234.6 504.144,233.413C503.116,232.371 503.275,230.772 502.378,229.671C502.124,229.358 502.323,228.964 502.482,228.846C502.93,228.52 503.229,229.114 503.637,229.177L503.628,229.145C503.773,229.431 503.913,229.716 504.058,230.002C503.886,232.715 505.961,230.273 506.55,231.311C506.745,230.545 505.975,230.382 506.025,229.789C506.586,229.775 506.922,229.363 507.343,229.086C507.646,229.508 507.95,229.934 508.258,230.355C507.769,230.473 506.935,230.414 507.751,231.247C508.226,231.732 508.756,232.167 509.286,232.652C509.789,231.406 508.235,231.261 508.249,230.346C509.223,230.006 510.007,230.391 510.401,231.216C510.854,232.162 511.869,232.194 512.548,232.779C513.839,233.893 512.879,235.719 514.138,236.706C514.36,236.883 514.501,237.173 514.677,237.413L514.659,237.39C514.682,237.585 514.741,237.739 514.985,237.717L514.967,237.694C515.017,237.866 515.072,238.034 515.121,238.206C515.176,238.034 515.235,237.866 515.294,237.694L515.275,237.712Z" fill="rgb(166,166,166)" fill-rule="nonzero"/>
</svg>