<svg width="105" height="19" viewBox="0 0 105 19" fill="none" xmlns="http://www.w3.org/2000/svg">
<path d="M26.7969 3.625H28.2578L31.9844 12.8984L35.7031 3.625H37.1719L32.5469 15H31.4062L26.7969 3.625ZM26.3203 3.625H27.6094L27.8203 10.5625V15H26.3203V3.625ZM36.3516 3.625H37.6406V15H36.1406V10.5625L36.3516 3.625ZM45.0547 13.5547V9.20312C45.0547 8.86979 44.987 8.58073 44.8516 8.33594C44.7214 8.08594 44.5234 7.89323 44.2578 7.75781C43.9922 7.6224 43.6641 7.55469 43.2734 7.55469C42.9089 7.55469 42.5885 7.61719 42.3125 7.74219C42.0417 7.86719 41.8281 8.03125 41.6719 8.23438C41.5208 8.4375 41.4453 8.65625 41.4453 8.89062H40C40 8.58854 40.0781 8.28906 40.2344 7.99219C40.3906 7.69531 40.6146 7.42708 40.9062 7.1875C41.2031 6.94271 41.5573 6.75 41.9688 6.60938C42.3854 6.46354 42.849 6.39062 43.3594 6.39062C43.974 6.39062 44.5156 6.49479 44.9844 6.70312C45.4583 6.91146 45.8281 7.22656 46.0938 7.64844C46.3646 8.0651 46.5 8.58854 46.5 9.21875V13.1562C46.5 13.4375 46.5234 13.737 46.5703 14.0547C46.6224 14.3724 46.6979 14.6458 46.7969 14.875V15H45.2891C45.2161 14.8333 45.1589 14.612 45.1172 14.3359C45.0755 14.0547 45.0547 13.7943 45.0547 13.5547ZM45.3047 9.875L45.3203 10.8906H43.8594C43.4479 10.8906 43.0807 10.9245 42.7578 10.9922C42.4349 11.0547 42.1641 11.151 41.9453 11.2812C41.7266 11.4115 41.5599 11.5755 41.4453 11.7734C41.3307 11.9661 41.2734 12.1927 41.2734 12.4531C41.2734 12.7188 41.3333 12.9609 41.4531 13.1797C41.5729 13.3984 41.7526 13.5729 41.9922 13.7031C42.237 13.8281 42.5365 13.8906 42.8906 13.8906C43.3333 13.8906 43.724 13.7969 44.0625 13.6094C44.401 13.4219 44.6693 13.1927 44.8672 12.9219C45.0703 12.651 45.1797 12.388 45.1953 12.1328L45.8125 12.8281C45.776 13.0469 45.6771 13.2891 45.5156 13.5547C45.3542 13.8203 45.138 14.0755 44.8672 14.3203C44.6016 14.5599 44.2839 14.7604 43.9141 14.9219C43.5495 15.0781 43.138 15.1562 42.6797 15.1562C42.1068 15.1562 41.6042 15.0443 41.1719 14.8203C40.7448 14.5964 40.4115 14.2969 40.1719 13.9219C39.9375 13.5417 39.8203 13.1172 39.8203 12.6484C39.8203 12.1953 39.9089 11.7969 40.0859 11.4531C40.263 11.1042 40.5182 10.8151 40.8516 10.5859C41.1849 10.3516 41.5859 10.1745 42.0547 10.0547C42.5234 9.9349 43.0469 9.875 43.625 9.875H45.3047ZM50.2188 8.17188V18.25H48.7656V6.54688H50.0938L50.2188 8.17188ZM55.9141 10.7031V10.8672C55.9141 11.4818 55.8411 12.0521 55.6953 12.5781C55.5495 13.099 55.3359 13.5521 55.0547 13.9375C54.7786 14.3229 54.4375 14.6224 54.0312 14.8359C53.625 15.0495 53.1589 15.1562 52.6328 15.1562C52.0964 15.1562 51.6224 15.0677 51.2109 14.8906C50.7995 14.7135 50.4505 14.4557 50.1641 14.1172C49.8776 13.7786 49.6484 13.3724 49.4766 12.8984C49.3099 12.4245 49.1953 11.8906 49.1328 11.2969V10.4219C49.1953 9.79688 49.3125 9.23698 49.4844 8.74219C49.6562 8.2474 49.8828 7.82552 50.1641 7.47656C50.4505 7.1224 50.7969 6.85417 51.2031 6.67188C51.6094 6.48438 52.0781 6.39062 52.6094 6.39062C53.1406 6.39062 53.612 6.49479 54.0234 6.70312C54.4349 6.90625 54.7812 7.19792 55.0625 7.57812C55.3438 7.95833 55.5547 8.41406 55.6953 8.94531C55.8411 9.47135 55.9141 10.0573 55.9141 10.7031ZM54.4609 10.8672V10.7031C54.4609 10.2812 54.4167 9.88542 54.3281 9.51562C54.2396 9.14062 54.1016 8.8125 53.9141 8.53125C53.7318 8.24479 53.4974 8.02083 53.2109 7.85938C52.9245 7.69271 52.5833 7.60938 52.1875 7.60938C51.8229 7.60938 51.5052 7.67188 51.2344 7.79688C50.9688 7.92188 50.7422 8.09115 50.5547 8.30469C50.3672 8.51302 50.2135 8.7526 50.0938 9.02344C49.9792 9.28906 49.8932 9.5651 49.8359 9.85156V11.875C49.9401 12.2396 50.0859 12.5833 50.2734 12.9062C50.4609 13.224 50.7109 13.4818 51.0234 13.6797C51.3359 13.8724 51.7292 13.9688 52.2031 13.9688C52.5938 13.9688 52.9297 13.888 53.2109 13.7266C53.4974 13.5599 53.7318 13.3333 53.9141 13.0469C54.1016 12.7604 54.2396 12.4323 54.3281 12.0625C54.4167 11.6875 54.4609 11.2891 54.4609 10.8672ZM59.2031 8.17188V18.25H57.75V6.54688H59.0781L59.2031 8.17188ZM64.8984 10.7031V10.8672C64.8984 11.4818 64.8255 12.0521 64.6797 12.5781C64.5339 13.099 64.3203 13.5521 64.0391 13.9375C63.763 14.3229 63.4219 14.6224 63.0156 14.8359C62.6094 15.0495 62.1432 15.1562 61.6172 15.1562C61.0807 15.1562 60.6068 15.0677 60.1953 14.8906C59.7839 14.7135 59.4349 14.4557 59.1484 14.1172C58.862 13.7786 58.6328 13.3724 58.4609 12.8984C58.2943 12.4245 58.1797 11.8906 58.1172 11.2969V10.4219C58.1797 9.79688 58.2969 9.23698 58.4688 8.74219C58.6406 8.2474 58.8672 7.82552 59.1484 7.47656C59.4349 7.1224 59.7812 6.85417 60.1875 6.67188C60.5938 6.48438 61.0625 6.39062 61.5938 6.39062C62.125 6.39062 62.5964 6.49479 63.0078 6.70312C63.4193 6.90625 63.7656 7.19792 64.0469 7.57812C64.3281 7.95833 64.5391 8.41406 64.6797 8.94531C64.8255 9.47135 64.8984 10.0573 64.8984 10.7031ZM63.4453 10.8672V10.7031C63.4453 10.2812 63.401 9.88542 63.3125 9.51562C63.224 9.14062 63.0859 8.8125 62.8984 8.53125C62.7161 8.24479 62.4818 8.02083 62.1953 7.85938C61.9089 7.69271 61.5677 7.60938 61.1719 7.60938C60.8073 7.60938 60.4896 7.67188 60.2188 7.79688C59.9531 7.92188 59.7266 8.09115 59.5391 8.30469C59.3516 8.51302 59.1979 8.7526 59.0781 9.02344C58.9635 9.28906 58.8776 9.5651 58.8203 9.85156V11.875C58.9245 12.2396 59.0703 12.5833 59.2578 12.9062C59.4453 13.224 59.6953 13.4818 60.0078 13.6797C60.3203 13.8724 60.7135 13.9688 61.1875 13.9688C61.5781 13.9688 61.9141 13.888 62.1953 13.7266C62.4818 13.5599 62.7161 13.3333 62.8984 13.0469C63.0859 12.7604 63.224 12.4323 63.3125 12.0625C63.401 11.6875 63.4453 11.2891 63.4453 10.8672ZM71.6641 12.7578C71.6641 12.5495 71.6172 12.3568 71.5234 12.1797C71.4349 11.9974 71.25 11.8333 70.9688 11.6875C70.6927 11.5365 70.276 11.4062 69.7188 11.2969C69.25 11.1979 68.8255 11.0807 68.4453 10.9453C68.0703 10.8099 67.75 10.6458 67.4844 10.4531C67.224 10.2604 67.0234 10.0339 66.8828 9.77344C66.7422 9.51302 66.6719 9.20833 66.6719 8.85938C66.6719 8.52604 66.7448 8.21094 66.8906 7.91406C67.0417 7.61719 67.2526 7.35417 67.5234 7.125C67.7995 6.89583 68.1302 6.71615 68.5156 6.58594C68.901 6.45573 69.3307 6.39062 69.8047 6.39062C70.4818 6.39062 71.0599 6.51042 71.5391 6.75C72.0182 6.98958 72.3854 7.3099 72.6406 7.71094C72.8958 8.10677 73.0234 8.54688 73.0234 9.03125H71.5781C71.5781 8.79688 71.5078 8.57031 71.3672 8.35156C71.2318 8.1276 71.0312 7.94271 70.7656 7.79688C70.5052 7.65104 70.1849 7.57812 69.8047 7.57812C69.4036 7.57812 69.0781 7.64062 68.8281 7.76562C68.5833 7.88542 68.4036 8.03906 68.2891 8.22656C68.1797 8.41406 68.125 8.61198 68.125 8.82031C68.125 8.97656 68.151 9.11719 68.2031 9.24219C68.2604 9.36198 68.3594 9.47396 68.5 9.57812C68.6406 9.67708 68.8385 9.77083 69.0938 9.85938C69.349 9.94792 69.6745 10.0365 70.0703 10.125C70.763 10.2812 71.3333 10.4688 71.7812 10.6875C72.2292 10.9062 72.5625 11.1745 72.7812 11.4922C73 11.8099 73.1094 12.1953 73.1094 12.6484C73.1094 13.0182 73.0312 13.3568 72.875 13.6641C72.724 13.9714 72.5026 14.237 72.2109 14.4609C71.9245 14.6797 71.5807 14.8516 71.1797 14.9766C70.7839 15.0964 70.3385 15.1562 69.8438 15.1562C69.099 15.1562 68.4688 15.0234 67.9531 14.7578C67.4375 14.4922 67.0469 14.1484 66.7812 13.7266C66.5156 13.3047 66.3828 12.8594 66.3828 12.3906H67.8359C67.8568 12.7865 67.9714 13.1016 68.1797 13.3359C68.388 13.5651 68.6432 13.7292 68.9453 13.8281C69.2474 13.9219 69.5469 13.9688 69.8438 13.9688C70.2396 13.9688 70.5703 13.9167 70.8359 13.8125C71.1068 13.7083 71.3125 13.5651 71.4531 13.3828C71.5938 13.2005 71.6641 12.9922 71.6641 12.7578ZM78.5469 6.54688V7.65625H73.9766V6.54688H78.5469ZM75.5234 4.49219H76.9688V12.9062C76.9688 13.1927 77.013 13.4089 77.1016 13.5547C77.1901 13.7005 77.3047 13.7969 77.4453 13.8438C77.5859 13.8906 77.737 13.9141 77.8984 13.9141C78.0182 13.9141 78.1432 13.9036 78.2734 13.8828C78.4089 13.8568 78.5104 13.8359 78.5781 13.8203L78.5859 15C78.4714 15.0365 78.3203 15.0703 78.1328 15.1016C77.9505 15.138 77.7292 15.1562 77.4688 15.1562C77.1146 15.1562 76.7891 15.0859 76.4922 14.9453C76.1953 14.8047 75.9583 14.5703 75.7812 14.2422C75.6094 13.9089 75.5234 13.4609 75.5234 12.8984V4.49219ZM85.2266 13.5547V9.20312C85.2266 8.86979 85.1589 8.58073 85.0234 8.33594C84.8932 8.08594 84.6953 7.89323 84.4297 7.75781C84.1641 7.6224 83.8359 7.55469 83.4453 7.55469C83.0807 7.55469 82.7604 7.61719 82.4844 7.74219C82.2135 7.86719 82 8.03125 81.8438 8.23438C81.6927 8.4375 81.6172 8.65625 81.6172 8.89062H80.1719C80.1719 8.58854 80.25 8.28906 80.4062 7.99219C80.5625 7.69531 80.7865 7.42708 81.0781 7.1875C81.375 6.94271 81.7292 6.75 82.1406 6.60938C82.5573 6.46354 83.0208 6.39062 83.5312 6.39062C84.1458 6.39062 84.6875 6.49479 85.1562 6.70312C85.6302 6.91146 86 7.22656 86.2656 7.64844C86.5365 8.0651 86.6719 8.58854 86.6719 9.21875V13.1562C86.6719 13.4375 86.6953 13.737 86.7422 14.0547C86.7943 14.3724 86.8698 14.6458 86.9688 14.875V15H85.4609C85.388 14.8333 85.3307 14.612 85.2891 14.3359C85.2474 14.0547 85.2266 13.7943 85.2266 13.5547ZM85.4766 9.875L85.4922 10.8906H84.0312C83.6198 10.8906 83.2526 10.9245 82.9297 10.9922C82.6068 11.0547 82.3359 11.151 82.1172 11.2812C81.8984 11.4115 81.7318 11.5755 81.6172 11.7734C81.5026 11.9661 81.4453 12.1927 81.4453 12.4531C81.4453 12.7188 81.5052 12.9609 81.625 13.1797C81.7448 13.3984 81.9245 13.5729 82.1641 13.7031C82.4089 13.8281 82.7083 13.8906 83.0625 13.8906C83.5052 13.8906 83.8958 13.7969 84.2344 13.6094C84.5729 13.4219 84.8411 13.1927 85.0391 12.9219C85.2422 12.651 85.3516 12.388 85.3672 12.1328L85.9844 12.8281C85.9479 13.0469 85.849 13.2891 85.6875 13.5547C85.526 13.8203 85.3099 14.0755 85.0391 14.3203C84.7734 14.5599 84.4557 14.7604 84.0859 14.9219C83.7214 15.0781 83.3099 15.1562 82.8516 15.1562C82.2786 15.1562 81.776 15.0443 81.3438 14.8203C80.9167 14.5964 80.5833 14.2969 80.3438 13.9219C80.1094 13.5417 79.9922 13.1172 79.9922 12.6484C79.9922 12.1953 80.0807 11.7969 80.2578 11.4531C80.4349 11.1042 80.6901 10.8151 81.0234 10.5859C81.3568 10.3516 81.7578 10.1745 82.2266 10.0547C82.6953 9.9349 83.2188 9.875 83.7969 9.875H85.4766ZM92.3281 13.9688C92.6719 13.9688 92.9896 13.8984 93.2812 13.7578C93.5729 13.6172 93.8125 13.4245 94 13.1797C94.1875 12.9297 94.2943 12.6458 94.3203 12.3281H95.6953C95.6693 12.8281 95.5 13.2943 95.1875 13.7266C94.8802 14.1536 94.4766 14.5 93.9766 14.7656C93.4766 15.026 92.9271 15.1562 92.3281 15.1562C91.6927 15.1562 91.138 15.0443 90.6641 14.8203C90.1953 14.5964 89.8047 14.2891 89.4922 13.8984C89.1849 13.5078 88.9531 13.0599 88.7969 12.5547C88.6458 12.0443 88.5703 11.5052 88.5703 10.9375V10.6094C88.5703 10.0417 88.6458 9.50521 88.7969 9C88.9531 8.48958 89.1849 8.03906 89.4922 7.64844C89.8047 7.25781 90.1953 6.95052 90.6641 6.72656C91.138 6.5026 91.6927 6.39062 92.3281 6.39062C92.9896 6.39062 93.5677 6.52604 94.0625 6.79688C94.5573 7.0625 94.9453 7.42708 95.2266 7.89062C95.513 8.34896 95.6693 8.86979 95.6953 9.45312H94.3203C94.2943 9.10417 94.1953 8.78906 94.0234 8.50781C93.8568 8.22656 93.6276 8.0026 93.3359 7.83594C93.0495 7.66406 92.7135 7.57812 92.3281 7.57812C91.8854 7.57812 91.513 7.66667 91.2109 7.84375C90.9141 8.01562 90.6771 8.25 90.5 8.54688C90.3281 8.83854 90.2031 9.16406 90.125 9.52344C90.0521 9.8776 90.0156 10.2396 90.0156 10.6094V10.9375C90.0156 11.3073 90.0521 11.6719 90.125 12.0312C90.1979 12.3906 90.3203 12.7161 90.4922 13.0078C90.6693 13.2995 90.9062 13.5339 91.2031 13.7109C91.5052 13.8828 91.8802 13.9688 92.3281 13.9688ZM98.7734 3V15H97.3203V3H98.7734ZM103.938 6.54688L100.25 10.4922L98.1875 12.6328L98.0703 11.0938L99.5469 9.32812L102.172 6.54688H103.938ZM102.617 15L99.6016 10.9688L100.352 9.67969L104.32 15H102.617Z" fill="white"/>
<circle cx="3.5" cy="3.5" r="3.5" fill="#00A2FF"/>
<circle cx="14.5" cy="3.5" r="3.5" fill="#FF45A8"/>
<circle cx="3.5" cy="14.5" r="3.5" fill="#00AB8E"/>
<circle cx="14.5" cy="14.5" r="3.5" fill="#FEAE00"/>
</svg>
